SplineFontDB: 1.0
FontName: post_bi
FullName: post_bi
FamilyName: post_bi
Weight: Bold
Copyright: Created by Andrey V. Panov with FontForge 1.0 (http://fontforge.sf.net)
Comments: 2006-8-31: Created.
Version: 1
ItalicAngle: -14.04
UnderlinePosition: -100
UnderlineWidth: 50
Ascent: 800
Descent: 200
NeedsXUIDChange: 1
XUID: [1021 305 2130962764 8033665]
CreationTime: 1157007660
ModificationTime: 1159878859
OS2TypoAscent: 0
OS2TypoAOffset: 1
OS2TypoDescent: 0
OS2TypoDOffset: 1
OS2TypoLinegap: 0
OS2WinAscent: 0
OS2WinAOffset: 1
OS2WinDescent: 0
OS2WinDOffset: 1
HheadAscent: 0
HheadAOffset: 1
HheadDescent: 0
HheadDOffset: 1
OS2Vendor: 'PfEd'
Encoding: UnicodeBmp
UnicodeInterp: none
NameList: Adobe Glyph List
DisplaySize: -48
AntiAlias: 1
FitToEm: 1
WinInfo: 0 16 14
BeginChars: 65536 31
StartChar: quotedbl
Encoding: 34 34 0
Width: 591
Flags: W
TeX: 0 0 0 0
HStem: 342 21<290.5 304 467.5 481> 686 20<361.5 386.5 538.5 563.5>
Back
373.957 705.545 m 0
 393.637 706.7 413.957 698.15 423.305 679.985 c 0
 425.056 676.522 426.316 672.895 427.104 669.13 c 0
 428.739 661.222 428.264 653.043 426.457 645.217 c 0
 423.957 634.45 419.371 624.168 415.346 613.913 c 2
 397.102 567.391 l 1
 340.657 423.478 l 2
 332.411 402.477 324.588 381.253 315.865 360.435 c 0
 312.188 351.675 306.464 341.851 295.692 341.707 c 0
 288.911 341.617 282.652 345.93 279.891 351.996 c 0
 278.466 355.048 277.955 358.401 277.87 361.739 c 0
 277.765 370.84 279.407 380.104 280.384 389.13 c 2
 285.355 435.217 l 1
 301.101 581.304 l 1
 305.884 625.652 l 2
 307 636.522 307.836 647.768 311.34 658.261 c 0
 320.296 685.072 345.891 703.897 373.957 705.545 c 0
551.783 705.567 m 1
 551.783 705.567 l 1
 571.348 706.618 591.561 698.03 600.825 679.986 c 0
 602.583 676.522 603.847 672.896 604.637 669.13 c 0
 606.3 661.214 605.696 653.044 603.938 645.217 c 0
 601.427 634.452 596.861 624.175 592.84 613.913 c 2
 574.767 567.826 l 1
 518.152 423.478 l 2
 509.919 402.472 502.076 381.254 493.356 360.435 c 0
 489.609 351.669 483.881 341.739 473.083 341.732 c 0
 466.393 341.698 460.325 346.01 457.435 351.963 c 0
 456.042 355.019 455.51 358.384 455.443 361.739 c 0
 455.261 370.695 456.877 379.811 457.83 388.696 c 2
 462.893 435.652 l 1
 478.545 580.87 l 1
 483.328 625.217 l 2
 484.517 636.292 485.261 647.628 488.834 658.261 c 0
 497.804 685.187 523.604 704.053 551.783 705.567 c 1
EndSplineSet
Refer: 10 39 N 1 0 0 1 206 0 2
Refer: 10 39 N 1 0 0 1 29 0 2
EndChar
StartChar: seven
Encoding: 55 55 1
Width: 591
Flags: MW
TeX: 0 0 0 0
HStem: -22 21<338 359.5> 561 105<383.886 464.7>
Back
554.739 530.87 m 1
 554.739 530.869 l 1
 541.027 527.777 527.103 525.56 513 526.434 c 0
 503.648 526.956 494.456 529.035 485.609 532.088 c 0
 462.501 540 441.953 556.087 417.348 559.496 c 0
 409.278 560.612 401.1 560.297 393 559.71 c 0
 382.933 558.981 372.904 557.699 363 555.738 c 0
 315.541 546.342 270.16 523.645 235.78 489.376 c 0
 226.823 480.435 218.522 470.783 211.245 460.435 c 0
 206.836 454.166 203.167 447.391 198.652 441.169 c 0
 196.568 438.144 194.044 435.332 190.778 433.478 c 0
 186.429 431.021 181.37 430.636 176.476 430.508 c 0
 172.565 430.406 168.648 430.402 164.739 430.522 c 0
 157.697 430.74 149.726 431.959 146.039 438.806 c 0
 142.712 444.982 145.336 451.963 148.043 457.826 c 0
 153.761 470.21 160.391 482.174 166.651 494.348 c 2
 225.896 609.565 l 1
 242.668 642.173 l 2
 246.044 648.695 249.251 656.253 254.895 661.211 c 0
 257.482 663.478 260.58 664.948 263.87 665.652 c 0
 267.193 666.349 270.555 666.432 273.87 666.481 c 2
 279.087 666.504 l 2
 287.203 666.473 297.595 666.699 302.439 658.833 c 0
 303.095 657.768 303.594 656.608 303.87 655.401 c 0
 305.174 650.615 303.614 645.652 301.696 641.304 c 0
 298.843 634.648 295.32 628.249 292.131 621.739 c 1
 326.913 644.551 366.044 661.104 407.783 665.392 c 0
 424.121 667.072 441.607 667.721 456 658.53 c 0
 459.522 656.251 462.839 653.478 465.754 650.435 c 0
 481.547 633.81 485.072 610.222 492.977 589.565 c 0
 497.294 578.261 504.031 566.193 516.913 563.688 c 0
 522.206 562.609 527.735 563.151 533 564.016 c 0
 543.848 565.796 554.239 569.854 563.87 575.086 c 0
 597.734 593.478 622.268 624.089 646.787 652.931 c 0
 650.177 656.919 653.796 660.99 658.479 663.478 c 0
 665.609 667.306 674.68 666.598 682.564 666.481 c 0
 689.087 666.383 696.645 666.087 701.432 660.87 c 0
 702.291 659.97 703 658.917 703.576 657.776 c 0
 707.783 649.11 700.61 640.096 695.704 633.478 c 2
 692.12 628.696 l 1
 687.233 622.174 l 2
 662.008 588.261 638.524 553.136 616.716 516.956 c 0
 552.997 411.244 504.185 296.957 466.621 179.565 c 0
 454.893 142.899 444.22 105.909 434.304 68.6956 c 2
 428.605 46.5217 l 2
 426.669 39.0017 424.708 31.4682 421.554 24.3478 c 0
 417.474 15.1352 411.646 6.74259 404.377 -0.24089 c 0
 400.5 -3.96524 396.242 -7.29524 391.69 -10.1552 c 0
 369.425 -24.1448 337.103 -27.5983 315.948 -9.57132 c 0
 312.521 -6.65089 309.506 -3.24654 307.059 0.535199 c 0
 303.993 5.21737 301.868 10.5722 300.697 16.0869 c 0
 297.706 30.17 301.404 44.2387 305.029 57.8261 c 0
 310.184 77.1487 316.043 96.2952 322.523 115.217 c 0
 356.198 213.701 405.274 306.179 460.826 393.913 c 0
 490.498 440.634 521.825 486.41 554.739 530.87 c 1
EndSplineSet
Fore
174 431 m 2
 165 431 l 2
 150 431 144 437 144 446 c 0
 144 454 147 455 243 642 c 0
 252 661 255 666 274 666 c 2
 280 666 l 2
 299 666 304 660 304 652 c 0
 304 642 296 629 292 622 c 1
 348 659 398 666 424 666 c 0
 505 666 471 563 525 563 c 0
 576 563 629 632 647 653 c 0
 658 666 664 666 675 666 c 2
 683 666 l 2
 695 666 705 664 705 652 c 0
 705 643 697 635 692 629 c 0
 489 359 438 65 422 24 c 0
 405 -14 367 -22 352 -22 c 0
 324 -22 300 -4 300 27 c 0
 300 45 314 89 323 115 c 0
 353 204 414 341 555 531 c 1
 543 528 531 526 519 526 c 0
 471 526 450 561 401 561 c 0
 377 561 263 548 199 442 c 0
 193 431 184 431 174 431 c 2
EndSplineSet
EndChar
StartChar: question
Encoding: 63 63 2
Width: 591
Flags: MW
TeX: 0 0 0 0
HStem: 0 148<304 323> 219 38<341.8 387.3> 680 36<424.8 531.4>
VStem: 214 119<464.3 550.1> 238 151<66.5 81.5> 556 58<566.8 673.4>
Back
294.739 560.435 m 1
 294.739 560.435 l 1
 301.633 558.549 308.217 556.273 314.193 552.139 c 0
 317.477 549.842 320.391 547.117 323 544.034 c 0
 337.25 526.915 334.72 502.158 325.044 483.479 c 0
 310.103 454.639 272.756 435.652 241.261 448.672 c 0
 236.825 450.435 232.657 453 228.983 456.087 c 0
 226.044 458.553 223.435 461.379 221.261 464.504 c 0
 219.622 466.907 218.202 469.486 217.063 472.174 c 0
 210.012 488.905 214.879 507.039 220.236 523.479 c 0
 221.696 528.163 223.425 532.804 225.174 537.392 c 0
 227.237 542.533 229.422 547.607 231.696 552.609 c 0
 234.73 558.95 237.916 565.193 241.261 571.305 c 0
 245.609 579.066 250.391 586.522 255.46 593.913 c 0
 305.435 666.465 390.72 720.191 480.826 716.261 c 0
 518.152 714.633 556.913 703.606 583.358 675.844 c 0
 587.631 671.305 591.495 666.482 594.896 661.303 c 0
 619.087 624.348 617.997 575.955 605.025 535.218 c 0
 602.47 527.194 599.375 519.347 595.767 511.739 c 0
 591.101 501.902 585.609 492.468 579.486 483.478 c 0
 571.637 471.984 562.742 461.251 552.898 451.412 c 0
 544.523 443.04 535.538 435.217 526.043 428.189 c 0
 515.107 420 503.534 412.747 492.13 405.217 c 2
 430.391 364.783 l 1
 385.174 335.187 l 2
 377.348 330.078 369.283 325.159 362.4 318.829 c 0
 356.116 313.044 351.043 306.084 347.612 298.261 c 0
 346.679 296.087 345.863 293.913 345.161 291.739 c 2
 343.739 286.522 l 2
 341.666 277.467 340.562 264.572 349.809 258.962 c 0
 351.126 258.164 352.565 257.593 354.06 257.218 c 0
 356.551 256.522 359.087 256.504 361.696 256.648 c 0
 366.567 256.924 371.4 257.988 376.043 259.418 c 0
 395.431 265.392 412.561 278.83 423.76 295.652 c 0
 426.685 300 429.076 304.724 431.192 309.553 c 0
 433.789 315.48 436.29 321.917 442.13 325.304 c 0
 446.259 327.634 451.026 328.032 455.609 328.173 c 2
 461.696 328.246 l 2
 470.293 328.247 481.583 328.696 486.581 320.204 c 0
 487.286 318.997 487.783 317.684 488.114 316.324 c 0
 489.087 311.904 488.105 307.277 486.76 303.043 c 0
 484.269 295.201 480.391 287.75 475.963 280.87 c 0
 451.346 243.044 404.992 221.82 360.826 219.565 c 0
 339.897 218.516 318.652 223.593 303.435 238.696 c 0
 300.289 241.904 297.473 245.393 295.071 249.13 c 0
 291.886 254.137 289.455 259.565 287.69 265.217 c 0
 283.075 279.961 282.95 295.652 285.161 310.87 c 0
 289.491 340.588 302.232 369.065 322.745 391.161 c 0
 336.83 406.332 354.519 417.053 371.696 428.261 c 2
 439.087 472.459 l 2
 456.194 483.673 473.396 494.757 490.391 506.087 c 0
 499.388 512.167 508.058 518.59 515.906 526.075 c 0
 536.739 545.947 552.13 571.455 555.248 600.435 c 0
 556.694 613.887 555.609 628.06 549.784 640.434 c 0
 547.971 644.283 545.7 647.902 543 651.236 c 0
 525.085 673.913 494.47 680.259 466.913 679.836 c 0
 405.369 678.891 351.261 639.084 315.368 591.739 c 0
 307.783 581.739 301.171 571.179 294.739 560.435 c 1
321.696 147.322 m 1
 321.696 147.322 l 1
 330.312 147.996 339.07 147.174 347.348 144.652 c 0
 352.72 143.016 357.863 140.648 362.544 137.538 c 0
 366.609 134.783 370.328 131.612 373.624 128.013 c 0
 388.405 111.871 391.915 89.0129 386.438 68.2612 c 0
 376.913 32.1742 342.409 3.1655 305.174 0.435063 c 0
 296.699 -0.141893 288.095 0.695498 279.957 3.17463 c 0
 274.584 4.78289 269.442 7.17898 264.739 10.289 c 0
 260.695 12.9907 256.913 16.2142 253.68 19.8133 c 0
 238.9 35.9559 235.39 58.8138 240.826 79.5655 c 0
 250.338 115.451 284.63 144.427 321.696 147.322 c 1
EndSplineSet
Fore
489 313 m 0
 489 277 428 219 356 219 c 0
 311 219 284 247 284 292 c 0
 284 322 296 362 323 391 c 0
 352 422 482 494 516 526 c 0
 538 547 556 577 556 611 c 0
 556 659 517 680 469 680 c 0
 435 680 358 666 295 560 c 1
 315 555 333 542 333 515 c 0
 333 476 298 444 263 444 c 0
 237 444 214 462 214 490 c 0
 214 558 316 716 471 716 c 0
 556 716 614 672 614 592 c 0
 614 563 607 489 526 428 c 0
 419.755 347.988 342 329 342 276 c 0
 342 266 346 257 360 257 c 0
 381 257 416 274 431 310 c 0
 436 321 439 328 456 328 c 2
 462 328 l 2
 471 328 489 328 489 313 c 0
EndSplineSet
Refer: 11 46 N 1 0 0 1 118 0 2
EndChar
StartChar: A
Encoding: 65 65 3
Width: 865
Flags: W
TeX: 0 0 0 0
HStem: 0 48<471.9 558.073 700.767 797.824> 189 48<356 552> 685 20G<597 625>
Back
246.652 57.8261 m 1
 246.652 57.8259 l 1
 258.384 54.122 270.058 51.0107 282.305 49.5651 c 0
 288.226 48.8738 294.177 48.4677 300.131 48.1764 c 0
 304.325 47.9707 308.559 47.9303 312.727 47.3716 c 0
 319.261 46.4877 325.526 43.4746 328.826 37.3912 c 0
 331.435 32.7594 331.435 27.3312 330.489 22.1738 c 0
 328.735 13.1699 324.044 4.47768 314.826 1.56986 c 0
 307.432 -0.750577 299.049 0.335944 291.435 0.637684 c 2
 253.174 1.89768 l 2
 211.624 3.04334 169.938 3.19377 128.392 1.85768 c 2
 116.218 1.43551 l 1
 107.957 1.10247 l 2
 96.7907 0.631597 82.3046 -1.69927 75.2068 9.22551 c 0
 74.2399 10.7055 73.4999 12.3286 73.0081 14.0264 c 0
 71.8303 18.0938 72.1477 22.4229 73.0212 26.5164 c 0
 74.8447 35.0642 79.3781 43.1581 88.0651 46.0868 c 0
 92.3046 47.5864 96.9547 47.7112 101.435 47.8259 c 2
 116.218 48.399 l 2
 128.34 49.0177 140.45 50.2912 152.305 52.9646 c 0
 159.443 54.5746 166.647 56.5973 173.136 59.9999 c 0
 185.348 66.5216 193.174 78.4777 200.29 89.9999 c 2
 220.131 122.609 l 1
 493.418 571.304 l 1
 546.634 658.695 l 1
 558.046 677.389 l 2
 563.346 685.919 569.148 694.348 577.957 699.538 c 0
 586.299 704.348 595.576 704.727 604.913 704.769 c 0
 609.83 704.783 614.79 704.884 619.693 704.457 c 0
 622.616 704.203 625.535 703.7 628.283 702.609 c 0
 629.986 701.983 631.609 701.123 633.096 700 c 0
 643.349 692.746 643.28 678.696 644.479 667.391 c 2
 657.087 552.174 l 1
 692.632 226.087 l 1
 704.285 119.13 l 2
 706.2 101.602 707.935 84.0452 710.049 66.5217 c 0
 710.565 61.7391 710.993 55.6174 715.015 52.3169 c 0
 717.218 50.5087 720.124 49.8491 722.879 49.4422 c 0
 727.282 48.7917 731.776 48.6574 736.218 48.483 c 0
 746.065 48.0969 755.928 47.8261 765.783 47.8261 c 0
 772.516 47.8148 779.542 48.2609 786.19 47.0309 c 0
 788.663 46.5217 791.075 45.7639 793.261 44.503 c 0
 805.54 37.3913 804.256 20.4213 797.277 9.93913 c 0
 796.326 8.5113 795.221 7.18608 793.963 6.01869 c 0
 787.432 -4.85033e-06 778.481 0.0847778 770.13 0.326082 c 2
 711.87 2.05521 l 2
 686.506 2.60565 661.151 2.60869 635.783 2.60869 c 0
 608.097 2.60869 580.418 2.5513 552.739 1.88478 c 2
 506.217 0.746951 l 2
 498.167 0.513908 488.768 -0.848701 481.187 2.50956 c 0
 479.666 3.18391 478.233 4.05652 476.943 5.10782 c 0
 469.449 11.213 469.226 20.8696 471.723 29.5435 c 0
 473.552 35.8613 477.038 41.7391 483.037 44.8943 c 0
 487.759 47.3509 493.172 47.6591 498.391 47.77 c 2
 514.913 47.9683 l 2
 525.783 48.23 536.652 48.65 547.522 49.5652 c 0
 555.669 50.3669 563.765 51.5165 571.87 52.6087 c 1
 572.304 53.0435 l 1
 557.522 189.13 l 1
 326.217 189.13 l 1
 299.526 144.783 l 1
 246.652 57.8261 l 1
522.305 510.435 m 1
 490.698 459.13 l 1
 438.805 373.913 l 1
 387.164 289.13 l 1
 355.783 236.956 l 1
 552.305 236.956 l 1
 533.339 410.869 l 1
 522.305 510.435 l 1
EndSplineSet
Fore
610 705 m 0
 640 705 642 692 644 667 c 2
 704 119 l 2
 711 55 711 54 717 51 c 0
 726 47 755 48 773 48 c 0
 788 48 802 46 802 27 c 0
 802 16 797 0 775 0 c 0
 763 0 727 3 655 3 c 2
 627 3 l 2
 547 3 507 0 494 0 c 0
 477 0 470 10 470 21 c 0
 470 34 476 48 501 48 c 2
 509 48 l 2
 541 48 559 51 572 53 c 1
 558 189 l 1
 326 189 l 1
 247 58 l 1
 299 41 331 57 331 28 c 0
 331 17 326 0 304 0 c 0
 292 0 258 3 188 3 c 0
 133 3 105 0 96 0 c 0
 75 0 72 12 72 20 c 0
 72 65 132 39 173 60 c 0
 185 67 193 78 200 90 c 2
 558 677 l 2
 574 704 584 705 610 705 c 0
522 510 m 1
 356 237 l 1
 552 237 l 1
 522 510 l 1
EndSplineSet
EndChar
StartChar: B
Encoding: 66 66 4
Width: 816
Flags: W
TeX: 0 0 0 0
HStem: 0 48<74.7888 174.785 295.23 503> 339 36<387 549> 638 48<230.419 325.11 452 670.8>
VStem: 642 136<168 329> 697 133<488.1 641.5>
Back
325.739 636.087 m 1
 325.739 636.087 l 1
 307.387 637.635 288.936 638.153 270.522 638.245 c 2
 252.696 638.261 l 2
 247.913 638.261 243.019 638.261 238.348 639.638 c 0
 236.399 640.226 234.435 641.091 232.696 642.261 c 0
 224.295 647.91 223.377 657.826 225.739 666.941 c 0
 226.771 670.746 228.283 674.487 230.711 677.615 c 0
 238.783 688.027 253.565 686.087 265.304 686.087 c 2
 353.13 686.087 l 1
 577.044 686.087 l 2
 629.384 686.087 683.13 689.067 733.565 672.313 c 0
 754.807 665.217 775.177 654.651 791.77 639.476 c 0
 799.457 632.446 806.316 624.506 811.826 615.652 c 0
 816.001 608.944 819.45 601.739 822.138 594.348 c 0
 833.565 562.715 831.149 526.794 819.217 495.652 c 0
 812.681 478.36 803.097 462.265 791.556 447.826 c 0
 762.635 411.645 722.236 387.054 678.783 372.157 c 0
 661.391 366.197 643.556 362.591 625.739 358.261 c 1
 650.522 355.951 675.441 350.427 698.348 340.36 c 0
 713.481 333.708 727.772 324.892 739.994 313.718 c 0
 747.88 306.509 754.785 298.256 760.354 289.13 c 0
 763.972 283.201 767.019 276.928 769.483 270.435 c 0
 788.482 220.37 771.626 163.639 743.684 120.435 c 0
 738.194 111.947 732.17 103.813 725.651 96.087 c 0
 717.304 86.1935 708.154 76.9405 698.347 68.4896 c 0
 683.993 56.087 668.094 45.5792 651.391 36.6596 c 0
 613.699 16.5218 571.647 5.48525 529.217 1.65612 c 0
 511.826 0.0887249 494.435 2.92063e-05 477.043 2.92063e-05 c 2
 431.391 2.92063e-05 l 1
 205.739 2.92063e-05 l 1
 98.7826 2.92063e-05 l 2
 88.7391 2.92063e-05 76.6087 -1.06867 69.3739 7.34394 c 0
 68.3478 8.4922 67.4782 9.76264 66.8596 11.1213 c 0
 66.0109 12.8305 65.4509 14.6709 65.1678 16.5218 c 0
 64.6283 20.1566 65.0722 23.8587 65.8839 27.3831 c 0
 67.913 36.49 73.2317 44.4209 82.6956 46.7283 c 0
 87.2569 47.8226 91.9956 47.7818 96.6087 47.8113 c 2
 114.435 47.8261 l 2
 123.997 47.8261 133.565 48.1474 143.13 48.4426 c 0
 155.578 48.8279 167.897 49.4779 180.087 52.1739 c 1
 194.598 110.87 l 1
 219.217 209.565 l 1
 293.837 507.826 l 1
 313.565 586.957 l 1
 325.739 636.087 l 1
387.044 375.217 m 1
 387.044 375.218 l 1
 490.087 375.218 l 1
 518.783 375.218 l 2
 527.913 375.218 537.044 375.197 546.174 376.241 c 0
 569.367 378.902 591.942 386.735 611.826 398.958 c 0
 652.167 423.759 679.008 466.015 690.696 511.305 c 0
 693.565 522.703 695.739 534.345 696.704 546.087 c 0
 698.739 571.871 694.417 600.227 674.87 618.872 c 0
 671.32 622.278 667.365 625.218 663.12 627.778 c 0
 640.941 640.87 614.364 638.261 589.652 638.261 c 2
 512.261 638.261 l 2
 492.227 638.261 472.214 638.622 452.261 636.522 c 1
 387.044 375.217 l 1
305.305 48.6959 m 1
 305.305 48.6958 l 1
 321.521 47.601 337.757 47.8263 354 47.8263 c 2
 417.913 47.8263 l 1
 459.218 47.8263 l 2
 472.02 47.8263 484.789 47.7419 497.478 49.6932 c 0
 521.392 53.3793 544.435 62.9702 564 77.2902 c 0
 603.06 105.88 625.959 150.435 635.991 196.957 c 0
 639.136 211.535 641.289 226.381 641.663 241.305 c 0
 642.346 268.508 636.609 298.174 616.304 317.767 c 0
 612.808 321.138 608.975 324.158 604.864 326.742 c 0
 596.285 332.134 586.595 335.571 576.609 337.175 c 0
 567.417 338.653 558.068 338.677 548.783 338.692 c 2
 525.305 338.696 l 1
 377.913 338.696 l 1
 305.305 48.6959 l 1
EndSplineSet
Fore
255 686 m 2xf0
 618 686 l 2
 657 686 696 685 734 672 c 0
 777 658 830 624 830 551 c 0xe8
 830 479 775 405 679 372 c 0
 661 366 644 363 626 358 c 1
 713 350 778 305 778 225 c 0
 778 152 713 18 529 2 c 0
 512 0 494 0 477 0 c 2
 92 0 l 2
 77 0 65 4 65 20 c 0
 65 46 86 48 94 48 c 2
 114 48 l 2
 147 48 167 49 180 52 c 1
 326 636 l 1
 307 638 289 638 271 638 c 2
 251 638 l 2
 236 638 225 643 225 659 c 0
 225 672 231 686 255 686 c 2xf0
697 557 m 0
 697 622 657 638 611 638 c 2
 497 638 l 2
 482 638 467 638 452 637 c 1
 387 375 l 1
 519 375 l 2
 661 375 697 504 697 557 c 0
642 246 m 0xf0
 642 339 575 339 549 339 c 2
 378 339 l 1
 305 49 l 1
 317 48 328 48 340 48 c 2
 462 48 l 2
 503 48 532 54 564 77 c 0
 616 116 642 186 642 246 c 0xf0
EndSplineSet
EndChar
StartChar: C
Encoding: 67 67 5
Width: 826
Flags: W
TeX: 0 0 0 0
HStem: -22 48<376 525.621> 660 48<591.289 715.5>
VStem: 161 135<18.6 278.6>
Back
794.478 639.565 m 1
 794.478 639.565 l 1
 818.184 657.391 840.805 676.765 864.043 695.218 c 0
 872.849 702.174 882.086 709.238 893.993 707.572 c 0
 896.119 707.275 898.218 706.695 900.13 705.652 c 0
 901.407 705.061 902.591 704.237 903.608 703.25 c 0
 911.531 695.726 907.087 683.364 904.855 674.348 c 2
 903.119 667.391 l 1
 900.728 657.826 l 1
 865.511 516.957 l 1
 848.826 450.435 l 2
 846.816 442.366 844.772 432.797 836.652 428.651 c 0
 835.129 427.826 833.476 427.323 831.787 426.957 c 0
 827.694 426.081 823.426 426.087 819.261 426.087 c 2
 812.739 426.087 l 2
 803.257 426.087 790.735 425.557 786.331 436 c 0
 784.7 439.865 784.784 444.159 785.098 448.261 c 2
 786.392 461.739 l 2
 787.648 476.173 787.93 490.756 786.975 505.217 c 0
 783.798 553.344 767.164 603.301 727.952 634.001 c 0
 721.733 638.87 715.022 643.044 707.956 646.621 c 0
 698.585 651.301 688.626 654.754 678.391 656.957 c 0
 662.097 660.435 645.348 660.81 628.826 659.787 c 0
 614.372 658.895 599.98 657.077 585.782 654.214 c 0
 560.847 649.13 536.579 641.11 513.609 630.182 c 0
 494.697 621.186 476.652 610.22 460.13 597.391 c 0
 448.275 588.261 437.226 578.19 426.875 567.381 c 0
 416.436 556.483 406.747 544.783 397.92 532.609 c 0
 364.571 486.361 344.162 432.303 328.714 377.826 c 0
 322.838 357.104 317.522 336.205 312.695 315.217 c 0
 302.617 271.55 294.195 226.309 297.001 181.304 c 0
 298.826 151.845 305.917 122.307 322.3 97.3914 c 0
 345.572 61.9988 383.895 40.9579 424.478 31.8727 c 0
 453.504 25.3749 484.165 23.7636 513.609 28.2001 c 0
 576.005 37.6023 632.872 73.4784 674.478 120 c 0
 694.341 142.174 711.101 167.174 723.391 194.348 c 0
 727.302 202.997 730.737 211.85 733.697 220.869 c 0
 735.722 227.038 737.087 233.913 740.772 239.394 c 0
 742.886 242.57 745.878 244.947 749.485 246.208 c 0
 753.572 247.637 757.956 247.725 762.304 247.787 c 2
 767.522 247.809 l 2
 776.44 247.774 788.074 247.733 791.966 237.826 c 0
 792.532 236.445 792.853 234.925 792.979 233.391 c 0
 793.525 226.7 790.957 219.758 788.959 213.478 c 0
 784.913 200.984 780.13 188.779 774.47 176.957 c 0
 749.143 124.142 709.05 79.4292 661.435 45.6488 c 0
 631.435 24.3479 598.391 7.3914 563.609 -4.34773 c 0
 543.259 -11.1256 522.265 -16.1547 501 -19.1308 c 0
 475.081 -22.7586 448.805 -22.8512 422.739 -20.8886 c 0
 355.563 -15.8303 287.33 4.65401 236.652 50.8101 c 0
 228.826 57.9688 221.435 65.6523 214.779 73.9131 c 0
 204.43 86.6349 195.501 100.542 188.19 115.217 c 0
 175.902 139.887 168.278 166.699 164.264 193.913 c 0
 161.861 210.204 161 226.522 161 243.044 c 0
 161.089 286.087 168.645 329.264 181.197 370.435 c 0
 204.276 446.087 244.365 517.055 300.271 573.388 c 0
 356.163 629.707 426.784 669.859 503.174 690.836 c 0
 535.783 699.79 569.42 705.317 603.174 707.333 c 0
 621.683 708.438 640.352 708.858 658.826 706.957 c 0
 691.176 703.715 722.879 693.845 750.565 676.635 c 0
 766.977 666.433 781.435 653.788 794.478 639.565 c 1
EndSplineSet
Fore
820 426 m 2
 813 426 l 2
 790 426 785 430 785 444 c 0
 785 454 788 468 788 489 c 0
 788 556 759 660 644 660 c 0
 610 660 485 653 398 533 c 0
 330 438 296 260 296 198 c 0
 296 60 400 26 480 26 c 0
 506 26 594 30 674 120 c 0
 754 210 720 248 762 248 c 2
 768 248 l 2
 787 248 793 242 793 232 c 0
 793 227 791 220 789 213 c 0
 744 74 597 -22 455 -22 c 0
 332 -22 161 31 161 243 c 0
 161 448 326 708 631 708 c 0
 696 708 751 687 794 640 c 1
 859 688 871 708 890 708 c 0
 898 708 908 704 908 691 c 0
 908 687 907 684 849 450 c 0
 844 432 842 426 820 426 c 2
EndSplineSet
EndChar
StartChar: D
Encoding: 68 68 6
Width: 875
Flags: W
TeX: 0 0 0 0
HStem: -0 48<74.347 174.785 311.609 491.06> 638 48<233.565 342.482 458 696.8>
VStem: 755 129<421.6 592.6>
Back
325.739 636.087 m 1
 325.739 636.087 l 1
 306.379 637.721 286.904 638.215 267.478 638.256 c 2
 250.087 638.261 l 2
 245.158 638.407 240.048 638.637 235.492 640.717 c 0
 233.832 641.476 232.261 642.461 230.895 643.652 c 0
 223.849 649.723 223.565 658.993 225.885 667.373 c 0
 227.044 671.739 229.017 676.054 232.223 679.357 c 0
 235.515 682.751 239.834 684.663 244.435 685.42 c 0
 251.694 686.604 259.301 686.087 266.609 686.087 c 2
 302.696 686.087 l 1
 416.174 686.087 l 1
 586.174 686.087 l 2
 612.668 686.087 639.32 686.951 665.739 684.588 c 0
 706.787 680.87 747.682 669.793 783.13 648.371 c 0
 796.976 640 809.82 629.997 821.269 618.565 c 0
 829.397 610.435 836.791 601.62 843.327 592.174 c 0
 885.739 530.858 889.532 451.41 877.913 380 c 0
 876.017 367.826 873.565 355.85 870.814 343.913 c 0
 866.805 326.876 861.967 310 856.174 293.478 c 0
 849.109 272.97 840.743 252.89 830.957 233.478 c 0
 818.348 208.261 803.565 184.164 786.527 161.739 c 0
 764.267 132.46 738.348 105.962 709.217 83.4783 c 0
 659.101 44.8605 599.629 18.7866 537.478 7.15916 c 0
 519.652 3.82786 501.654 1.63916 483.565 0.654812 c 0
 470.522 2.96235e-05 457.478 2.96235e-05 444.435 2.96235e-05 c 2
 400.522 2.96235e-05 l 1
 225.739 2.96235e-05 l 1
 104.435 2.96235e-05 l 1
 96.6087 2.96235e-05 l 2
 87.43 2.96235e-05 76.8783 -0.562144 69.993 6.66133 c 0
 68.9417 7.76481 68.0256 8.99699 67.28 10.3261 c 0
 66.4126 11.8718 65.7391 13.4783 65.4035 15.2174 c 0
 64.5587 19.1196 64.9509 23.1409 65.7391 26.9496 c 0
 67.8326 36.1996 73.0804 44.3479 82.6956 46.7283 c 0
 87.2587 47.8231 91.9969 47.7818 96.6087 47.8113 c 2
 114.435 47.8261 l 2
 123.997 47.8261 133.565 48.1474 143.13 48.4426 c 0
 155.578 48.8279 167.897 49.4779 180.087 52.1739 c 1
 194.598 110.87 l 1
 219.217 209.565 l 1
 293.837 507.826 l 1
 313.565 586.957 l 1
 325.739 636.087 l 1
310.957 48.6958 m 1
 310.957 48.6958 l 1
 324.143 47.8054 337.313 47.8263 350.522 47.8263 c 2
 391.826 47.8263 l 2
 420.522 47.8263 449.391 46.7989 477.913 50.5841 c 0
 536.174 58.261 592.018 83.3754 633.378 125.652 c 0
 642.119 134.665 650.196 144.259 657.587 154.348 c 0
 696.114 206.931 713.367 270.733 728.946 333.044 c 0
 739.009 373.295 749.547 413.8 753.45 455.218 c 0
 757.323 496.323 754.369 541.095 730.171 576.085 c 0
 725.623 582.609 720.401 588.696 714.645 594.318 c 0
 686.706 621.261 648.007 633.445 610.087 636.957 c 0
 587.597 639.131 564.823 638.261 542.261 638.261 c 2
 504.435 638.261 l 2
 488.872 638.261 473.407 638.153 457.913 636.522 c 1
 431.826 532.174 l 1
 384.87 344.348 l 1
 336.989 152.609 l 1
 310.957 48.6958 l 1
EndSplineSet
Fore
94 48 m 2
 114 48 l 2
 147 48 167 49 180 52 c 1
 326 636 l 1
 306 638 287 638 267 638 c 2
 250 638 l 2
 231 638 225 648 225 659 c 0
 225 685 246 686 254 686 c 2
 620 686 l 2
 831 686 884 559 884 447 c 0
 884 277 765 -0 453 -0 c 2
 93 -0 l 2
 81 0 65 2 65 20 c 0
 65 46 86 48 94 48 c 2
349 48 m 2
 427 48 l 2
 468 48 581 50 658 154 c 0
 721 241 755 436 755 484 c 0
 755 607 668 638 572 638 c 2
 504 638 l 2
 489 638 473 638 458 637 c 1
 311 49 l 1
 324 48 336 48 349 48 c 2
EndSplineSet
EndChar
StartChar: E
Encoding: 69 69 7
Width: 756
Flags: MW
TeX: 0 0 0 0
HStem: -0 48<73.8072 174.785 306.332 489.608> 329 48<399 473.787> 633 47<227.625 323.156 462.75 707.4>
VStem: 725 57<462 469>
Back
324.435 630.435 m 1
 324.435 630.435 l 1
 306.174 631.971 287.913 632.488 269.652 632.591 c 2
 251.826 632.609 l 2
 247.043 632.609 242.171 632.605 237.478 633.813 c 0
 235.381 634.348 233.302 635.217 231.391 636.443 c 0
 220.062 643.761 221.615 659.888 228.03 670.083 c 0
 228.935 671.521 229.993 672.863 231.207 674.053 c 0
 236.897 679.565 244.705 680.275 252.261 680.393 c 2
 264.435 680.435 l 1
 360.087 680.435 l 1
 657.478 680.435 l 1
 746.608 680.435 l 1
 772.261 680.428 l 2
 778.128 680.409 784.35 680.653 789.98 678.695 c 0
 791.821 678.112 793.565 677.241 795.164 676.087 c 0
 796.403 675.217 797.478 674.202 798.526 673.043 c 0
 804.979 665.526 803.232 655.124 802.214 646.087 c 2
 801.367 638.695 l 1
 800.224 628.695 l 1
 798.724 615.652 l 1
 785.528 500.869 l 1
 781.826 469.13 l 2
 781.084 462.375 780.639 455.005 777.175 448.982 c 0
 776.329 447.512 775.304 446.087 774.128 444.922 c 0
 768.561 439.13 760.713 438.386 753.13 438.261 c 0
 749.652 438.261 746.152 438.345 742.695 438.861 c 0
 740.248 439.232 737.816 439.883 735.572 440.99 c 0
 734.089 441.722 732.695 442.609 731.391 443.729 c 0
 723.35 450.816 724.697 461.7 725.719 471.304 c 2
 726.728 480.869 l 2
 729.181 504.892 731.231 529.43 728.002 553.478 c 0
 725.822 569.717 720.814 585.788 710.087 598.515 c 0
 692.541 619.466 664.869 626.836 638.782 629.963 c 0
 608.685 633.568 578.162 632.609 547.913 632.609 c 0
 519.404 632.609 490.662 633.726 462.261 630.869 c 1
 430.956 505.652 l 1
 398.782 376.956 l 1
 432.695 376.956 l 2
 458.989 376.956 487.478 376.863 510.513 391.52 c 0
 514.292 393.913 517.846 396.691 521.119 399.754 c 0
 536.174 413.885 544.219 433.622 550.062 453.043 c 2
 555.05 470.866 l 2
 556.726 476.84 558.709 483.016 563.347 487.391 c 0
 568.967 492.703 576.609 493.365 584 493.413 c 0
 587.326 493.435 590.688 493.387 593.986 492.915 c 0
 603.724 491.52 611.391 484.511 611.755 474.336 c 0
 611.926 468.617 610.291 462.896 608.936 457.391 c 2
 603.076 433.913 l 1
 562.206 270.435 l 2
 559.217 258.553 556.47 246.596 553.224 234.782 c 0
 550.956 226.691 547.647 218.559 539.449 214.962 c 0
 535.019 213.018 530.076 212.749 525.304 212.682 c 0
 516.38 212.557 506.497 213.009 500.522 220.662 c 0
 499.512 221.969 498.673 223.415 498.05 224.95 c 0
 497.336 226.706 496.918 228.569 496.753 230.435 c 0
 496.174 236.956 498.251 243.682 499.652 250 c 0
 502.696 263.217 505.725 276.798 505.523 290.435 c 0
 505.386 299.676 503.284 308.805 496.56 315.547 c 0
 487.33 324.783 473.435 327.079 460.957 328.165 c 0
 449.217 329.13 437.478 329.13 425.739 329.13 c 2
 386.609 329.13 l 1
 374.815 280.869 l 1
 355.304 203.043 l 1
 331.228 106.522 l 1
 316.609 48.6956 l 1
 330.663 47.7791 344.705 47.826 358.783 47.826 c 2
 405.304 47.826 l 2
 431.279 47.826 457.253 47.526 483.13 50.1669 c 0
 516.592 53.5817 549.56 62.1169 578.783 79.1304 c 0
 588.008 84.5343 596.754 90.7112 604.858 97.6695 c 0
 621.952 112.347 636.113 130.243 648.281 149.13 c 0
 663.97 173.478 676.609 199.675 688.348 226.087 c 2
 700.18 253.04 l 2
 703.13 259.808 706.544 266.956 713.055 271.032 c 0
 718.283 274.294 724.521 274.669 730.522 274.717 c 0
 734.133 274.745 737.795 274.699 741.367 274.115 c 0
 749.217 272.823 756.303 267.663 757.913 259.496 c 0
 758.317 257.513 758.348 255.477 758.123 253.473 c 0
 757.451 247.569 754.844 241.945 752.567 236.522 c 2
 742.603 213.043 l 1
 676.609 57.8261 l 1
 661.282 21.7391 l 2
 657.913 14.1421 653.979 6.07259 646.003 2.4565 c 0
 640.516 -2.35289e-05 634.251 -2.35289e-05 628.348 -2.35289e-05 c 2
 604.435 -2.35289e-05 l 1
 514.435 -2.35289e-05 l 1
 197.043 -2.35289e-05 l 1
 95.3043 -2.35289e-05 l 2
 85.8656 -2.35289e-05 75.1904 -0.154806 68.7826 8.05432 c 0
 67.7726 9.36085 66.9339 10.8061 66.3104 12.3413 c 0
 65.5426 14.2317 65.1191 16.2448 64.9848 18.2608 c 0
 64.2091 30 70.2508 43.4739 82.2608 46.6217 c 0
 86.9535 47.8261 91.8261 47.7808 96.6087 47.8113 c 2
 114.435 47.8261 l 2
 123.997 47.8261 133.565 48.1474 143.13 48.4426 c 0
 155.578 48.8278 167.897 49.4778 180.087 52.1739 c 1
 195.576 114.783 l 1
 222.261 221.739 l 1
 288.946 488.261 l 1
 324.435 630.435 l 1
EndSplineSet
Fore
252 680 m 2
 775 680 l 2
 792 680 803 676 803 658 c 0
 803 647 785 504 782 469 c 0
 780 449 776 438 751 438 c 0
 730 438 725 446 725 462 c 0
 725 476 730 498 730 527 c 0
 730 619 678 633 580 633 c 2
 510 633 l 2
 494 633 478 632 462 631 c 1
 399 377 l 1
 433 377 l 2
 469 377 498 378 521 400 c 0
 547 426 549 454 556 473 c 0
 560 485 562 493 585 493 c 0
 605 493 612 485 612 473 c 0
 612 468 610 461 609 457 c 2
 557 249 l 2
 549 213 540 213 524 213 c 0
 503 213 497 220 497 232 c 0
 497 246 506 267 506 289 c 0
 506 329 470 329 426 329 c 2
 387 329 l 1
 317 49 l 1
 329 48 342 48 355 48 c 2
 420 48 l 2
 467 48 526 48 579 79 c 0
 641 115 670 185 700 253 c 0
 707 269 712 275 733 275 c 0
 752 275 758 267 758 257 c 0
 758 251 755 243 753 237 c 2
 661 22 l 2
 653 4 648 -0 628 -0 c 2
 94 -0 l 2
 82 0 65 1 65 20 c 0
 65 46 85 48 94 48 c 2
 114 48 l 2
 147 48 167 49 180 52 c 1
 324 630 l 1
 306 632 288 633 270 633 c 2
 250 633 l 2
 235 633 223 637 223 653 c 0
 223 666 229 680 252 680 c 2
EndSplineSet
EndChar
StartChar: F
Encoding: 70 70 8
Width: 727
Flags: MW
TeX: 0 0 0 0
HStem: 0 48<72.8072 173.785 295.322 434.375> 316 48<395 463.787> 633 47<226.625 322.156 461.75 700>
VStem: 710 56<443 503.125>
Back
323.435 630.435 m 1
 323.435 630.435 l 1
 305.174 631.971 286.913 632.488 268.652 632.591 c 2
 250.391 632.609 l 2
 245.78 632.609 241.035 632.609 236.478 633.813 c 0
 234.389 634.348 232.314 635.217 230.391 636.443 c 0
 219.015 643.826 220.616 660.321 227.28 670.435 c 0
 235.099 682.383 250.606 680.434 263 680.435 c 2
 356.478 680.435 l 1
 646.043 680.435 l 1
 732.13 680.435 l 1
 756.913 680.428 l 2
 762.78 680.409 769.003 680.653 774.632 678.695 c 0
 776.473 678.112 778.217 677.241 779.816 676.087 c 0
 781.056 675.217 782.13 674.202 783.179 673.043 c 0
 789.632 665.526 787.885 655.124 786.866 646.087 c 2
 786.02 638.695 l 1
 784.876 628.695 l 1
 783.376 615.652 l 1
 770.18 500.869 l 1
 766.478 469.13 l 2
 765.736 462.375 765.291 455.005 761.827 448.982 c 0
 761.059 447.646 760.147 446.392 759.087 445.217 c 0
 753.533 439.239 745.532 438.388 737.783 438.261 c 0
 734.171 438.261 730.509 438.344 726.913 438.929 c 0
 724.618 439.308 722.337 439.948 720.225 440.99 c 0
 718.741 441.722 717.348 442.609 716.043 443.729 c 0
 708.002 450.816 709.349 461.7 710.371 471.304 c 2
 711.336 480.435 l 2
 713.827 504.714 715.954 529.565 712.99 553.913 c 0
 711.135 569.13 706.911 584.524 697.47 596.889 c 0
 681.696 617.493 655.919 625.652 631.261 629.286 c 0
 602.385 633.478 572.964 632.609 543.869 632.609 c 0
 516.363 632.609 488.652 633.626 461.261 630.87 c 1
 394.739 364.348 l 1
 423.435 364.348 l 2
 450.155 364.348 479.406 364.08 502.547 379.447 c 0
 506.292 381.934 509.8 384.773 513 387.919 c 0
 527.522 402.127 535.169 421.739 540.826 440.87 c 2
 545.609 458.258 l 2
 547.348 464.253 549.357 470.431 554.029 474.783 c 0
 559.522 479.996 567.061 480.73 574.304 480.801 c 0
 577.773 480.835 581.261 480.795 584.723 480.294 c 0
 594.426 478.88 602.13 471.873 602.423 461.726 c 0
 602.565 456.007 600.925 450.286 599.522 444.783 c 2
 593.598 420.87 l 1
 552.945 258.261 l 2
 549.956 246.522 547.233 234.73 544.092 223.043 c 0
 541.857 214.732 538.581 206.271 530.208 202.457 c 0
 525.609 200.382 520.536 200.127 515.609 200 c 0
 506.752 199.967 496.886 200.435 491.022 208.11 c 0
 489.956 209.41 489.21 210.845 488.602 212.366 c 0
 487.902 214.118 487.492 215.974 487.333 217.826 c 0
 486.791 224.259 488.808 230.777 490.23 236.957 c 0
 493.313 250.347 496.346 264.014 496.29 277.826 c 0
 496.254 286.882 494.465 295.848 488.032 302.609 c 0
 479.399 311.716 466.257 314.191 454.304 315.387 c 0
 442.746 316.522 431.123 316.52 419.522 316.522 c 2
 382.565 316.522 l 1
 369.956 265.652 l 1
 349.467 183.478 l 1
 328.815 100.87 l 1
 316.043 50.4348 l 1
 340.627 48.5691 365.304 47.9004 389.956 47.8261 c 2
 413.87 47.8195 l 2
 419.461 47.8026 425.335 48.0226 430.753 46.4182 c 0
 436.436 44.7348 441.261 40.6695 443.371 35.0604 c 0
 444.869 31.0774 444.739 26.7461 444.057 22.6087 c 0
 442.565 14.3478 438.622 6.08693 430.643 2.4691 c 0
 425.609 0.210841 420.092 0.136928 414.739 0.203015 c 2
 397.783 0.619971 l 1
 331.696 2.05475 l 2
 274.04 3.26693 216.311 2.76519 158.652 2.1378 c 0
 141.551 1.95171 124.442 1.45649 107.348 0.96258 c 2
 91.6956 0.517797 l 2
 87.3478 0.425189 82.9361 0.290406 78.6522 1.26736 c 0
 72.4587 2.70649 67.1357 7.05215 64.9983 13.1691 c 0
 63.6948 16.9013 63.74 20.8695 64.3043 24.7808 c 0
 65.5413 31.8469 68.4296 39.2039 74.4587 43.4782 c 0
 79.6278 47.1517 85.9926 47.6413 92.1304 47.7691 c 2
 109.087 47.8261 l 2
 119.233 47.8261 129.379 48.1074 139.522 48.3691 c 0
 152.826 48.6956 166.043 49.2921 179.087 52.1739 c 1
 194.576 114.783 l 1
 221.261 221.739 l 1
 287.946 488.261 l 1
 323.435 630.435 l 1
EndSplineSet
Fore
251 680 m 2
 760 680 l 2
 776 680 788 676 788 658 c 0
 788 647 770 504 766 469 c 0
 765 449 760 438 736 438 c 0
 715 438 710 446 710 462 c 0
 710 477 714 499 714 528 c 0
 714 616 670 633 570 633 c 2
 509 633 l 2
 493 633 477 632 461 631 c 1
 395 364 l 1
 423 364 l 2
 459 364 488 365 511 387 c 0
 537 413 539 441 546 460 c 0
 550 472 552 480 575 480 c 0
 595 480 602 472 602 460 c 0
 602 455 600 448 599 444 c 2
 547 236 l 2
 539 200 530 200 514 200 c 0
 493 200 487 207 487 219 c 0
 487 233 496 254 496 276 c 0
 496 316 460 316 416 316 c 2
 383 316 l 1
 316 50 l 1
 341 49 365 48 390 48 c 2
 414 48 l 2
 427 48 445 47 445 28 c 0
 445 15 439 0 417 0 c 0
 401 0 322 3 258 3 c 0
 138 3 107 0 91 0 c 0
 76 0 64 4 64 20 c 0
 64 46 84 48 93 48 c 2
 113 48 l 2
 146 48 166 49 179 52 c 1
 323 630 l 1
 305 632 287 633 269 633 c 2
 249 633 l 2
 234 633 222 637 222 653 c 0
 222 666 228 680 251 680 c 2
EndSplineSet
EndChar
StartChar: G
Encoding: 71 71 9
Width: 895
Flags: MW
TeX: 0 0 0 0
HStem: -22 48<390.1 538.2> 225 48<539.93 677.223 792.701 863.261> 660 48<540 716.8>
VStem: 161 136<10.2 265> 785 64<444 450>
Back
650.13 46.5217 m 1
 650.13 46.5217 l 1
 642.989 39.6808 635.556 33.2517 627.521 27.4734 c 0
 596.14 4.90602 558.773 -8.8592 521 -16.0975 c 0
 492.432 -21.5718 463.501 -23.0162 434.478 -21.6096 c 0
 361.308 -18.0635 285.867 3.28384 232.001 55.2043 c 0
 223.776 63.133 216.195 71.7147 209.359 80.8695 c 0
 199.096 94.616 190.401 109.506 183.509 125.217 c 0
 153.609 193.456 156.56 271.928 173.725 343.043 c 0
 194.68 429.866 238.776 512.464 302.393 575.508 c 0
 365.769 638.261 447.182 680.567 534.478 698.261 c 0
 558.391 703.149 582.695 706.277 607.087 707.552 c 0
 624.455 708.459 641.87 708.696 659.261 706.944 c 0
 692.488 703.478 725.011 693.124 753.174 674.984 c 0
 768.546 665.082 782.148 653.025 794.478 639.565 c 1
 818.184 657.391 840.805 676.765 864.043 695.217 c 0
 872.85 702.174 882.086 709.237 893.993 707.572 c 0
 896.12 707.275 898.219 706.695 900.13 705.652 c 0
 901.407 705.06 902.591 704.237 903.609 703.25 c 0
 911.531 695.726 907.087 683.364 904.856 674.348 c 2
 903.12 667.391 l 1
 900.728 657.826 l 1
 865.511 516.956 l 1
 848.826 450.435 l 2
 846.817 442.366 844.772 432.796 836.652 428.651 c 0
 835.13 427.826 833.476 427.323 831.787 426.956 c 0
 827.695 426.081 823.426 426.087 819.261 426.087 c 2
 812.739 426.087 l 2
 803.395 426.087 791.093 425.52 786.501 435.61 c 0
 783.156 442.963 785.528 452.299 786.217 460 c 0
 787.498 473.716 787.88 487.543 787.202 501.304 c 0
 784.992 546.087 771.366 592.359 738.666 624.556 c 0
 733.479 629.663 727.88 634.346 721.87 638.455 c 0
 714.8 643.288 707.193 647.329 699.261 650.551 c 0
 675.452 660.22 649.812 661.304 624.478 659.492 c 0
 579.261 656.087 534.858 642.973 495.348 620.719 c 0
 478.679 611.304 462.905 600.349 448.391 587.826 c 0
 437.016 578.107 426.406 567.391 416.562 556.087 c 0
 360.565 491.813 335.159 408.693 315.569 327.391 c 0
 308.356 297.391 302.046 267.186 298.826 236.522 c 0
 296.58 213.913 295.914 191.27 298.629 168.696 c 0
 301.435 145.003 308.391 121.65 321.105 101.304 c 0
 326.362 92.8761 332.6 85.0756 339.536 77.97 c 0
 364.014 52.8926 397.048 38.2409 431 31.2369 c 0
 443.036 28.6956 455.263 27.2361 467.522 26.413 c 0
 481.176 25.4965 494.811 25.4761 508.391 27.3487 c 0
 535.348 31.0704 561.787 41.7391 583.608 58.08 c 0
 600.565 70.7761 615.348 87.3913 623.896 106.957 c 0
 627.362 114.931 629.489 123.329 631.597 131.739 c 2
 637.902 156.957 l 1
 654.913 224.783 l 1
 635.782 226.33 616.652 226.685 597.522 227.168 c 0
 584.769 227.49 572.016 227.348 559.261 227.391 c 0
 551.796 227.391 543.555 227.146 537.17 231.651 c 0
 528.761 237.584 528.215 247.809 530.841 256.935 c 0
 532.188 261.616 534.393 266.087 538.061 269.446 c 0
 542.257 273.221 547.663 274.617 553.174 274.93 c 0
 561.395 275.396 569.696 274.753 577.956 274.526 c 0
 592.445 274.126 606.942 273.74 621.435 273.478 c 0
 658.391 272.978 695.336 272.609 732.304 272.609 c 0
 746.36 272.609 760.424 272.467 774.478 272.609 c 0
 794.335 272.964 814.196 273.478 834.043 274.193 c 2
 847.956 274.646 l 2
 853.174 274.718 858.598 274.481 863.266 271.851 c 0
 864.719 271.032 866.06 270 867.241 268.838 c 0
 873.372 262.715 873.365 253.913 871.149 246.087 c 0
 869.43 240 866.195 234.247 860.646 230.87 c 0
 853.118 226.39 843.332 227.391 834.913 227.362 c 0
 820.664 227.233 806.354 226.883 792.304 224.348 c 1
 787.882 205.147 782.898 186.071 778.12 166.957 c 2
 750.837 58.2609 l 2
 747.522 45.2174 744.593 32.0826 740.977 19.1304 c 0
 739.2 12.7839 736.647 5.65217 730.13 2.76522 c 0
 721.693 -0.99826 712.136 5.17696 704.913 9.11696 c 0
 685.539 19.6848 667.044 31.2504 651 46.5217 c 1
 650.13 46.5217 l 1
EndSplineSet
Fore
631 708 m 0
 697 708 751 687 794 640 c 1
 859 688 871 708 890 708 c 0
 898 708 908 704 908 691 c 0
 908 687 907 684 849 450 c 0
 844 432 842 426 820 426 c 2
 809 426 l 2
 799 426 785 427 785 444 c 0
 785 453 788 466 788 488 c 0
 788 557 759 660 644 660 c 0
 564 660 478 627 417 556 c 0
 326 451 297 250 297 200 c 0
 297 54 412 26 485 26 c 0
 568 26 612 80 624 107 c 0
 633 129 639 166 655 225 c 1
 631 227 592 227 576 227 c 2
 558 227 l 2
 547 227 529 228 529 248 c 0
 529 260 535 275 558 275 c 0
 576 275 593 273 732 273 c 2
 760 273 l 2
 801 273 826 275 843 275 c 0
 862 275 872 271 872 255 c 0
 872 229 852 227 842 227 c 2
 829 227 l 2
 819 227 807 227 792 224 c 1
 784 189 743 26 741 19 c 0
 737 6 732 2 725 2 c 0
 713 2 671 27 651 47 c 1
 597 -6 519 -22 455 -22 c 0
 334 -22 161 31 161 241 c 0
 161 454 331 708 631 708 c 0
EndSplineSet
EndChar
StartChar: quotesingle
Encoding: 39 39 10
Width: 355
Flags: MW
TeX: 0 0 0 0
HStem: 342 21<261.5 275> 686 20G<332.5 357.5>
Back
344.957 705.559 m 1
 344.957 705.559 l 1
 364.522 706.648 384.927 698.14 394.087 679.98 c 0
 395.9 676.522 397.13 672.893 397.937 669.131 c 0
 399.571 661.229 399.086 653.041 397.264 645.218 c 0
 394.723 634.304 390.09 623.881 386.014 613.478 c 2
 367.931 567.391 l 1
 311.478 423.478 l 1
 295.979 383.913 l 2
 292.783 375.939 289.86 367.826 286.513 360 c 0
 282.783 351.304 276.889 341.711 266.261 341.721 c 0
 259.598 341.727 253.571 346.037 250.766 351.976 c 0
 249.304 355.031 248.797 358.39 248.741 361.739 c 0
 248.594 370.695 250.174 379.811 251.173 388.696 c 2
 256.236 435.652 l 1
 271.888 580.87 l 1
 276.671 625.217 l 2
 277.863 636.291 278.637 647.627 282.177 658.261 c 0
 291.043 685.099 316.878 704.002 344.957 705.559 c 1
EndSplineSet
Fore
348 706 m 0
 367 706 399 696 399 656 c 0
 399 649 398 645 386 613 c 0
 280 342 284 342 266 342 c 0
 257 342 249 350 249 361 c 0
 249 369 278 645 282 658 c 0
 290 683 317 706 348 706 c 0
EndSplineSet
EndChar
StartChar: period
Encoding: 46 46 11
Width: 355
Flags: MW
TeX: 0 0 0 0
HStem: 0 148<186 205>
VStem: 120 151<66.5 81.5>
Back
204.783 147.326 m 1
 204.783 147.326 l 1
 213.257 147.996 221.843 147.249 230 144.783 c 0
 235.362 143.207 240.435 140.87 245.195 137.826 c 0
 249.103 135.217 252.693 132.174 255.88 128.82 c 0
 270.87 112.737 274.313 89.9004 268.696 69.1304 c 0
 258.924 32.74 224.3 3.24173 186.522 0.434777 c 0
 178.19 -0.144788 169.755 0.61869 161.739 3.01565 c 0
 156.378 4.61869 151.233 6.93521 146.522 9.99869 c 0
 142.609 12.553 139.047 15.5943 135.86 19.0056 c 0
 120.835 35.09 117.427 57.9252 123.018 78.6956 c 0
 132.778 114.953 167.174 144.348 204.783 147.326 c 1
EndSplineSet
Fore
120 60 m 0
 120 103 162 148 210 148 c 0
 247 148 271 121 271 88 c 0
 271 45 229 0 181 0 c 0
 145 0 120 27 120 60 c 0
EndSplineSet
EndChar
StartChar: H
Encoding: 72 72 12
Width: 896
Flags: MW
TeX: 0 0 0 0
HStem: 0 48<73.2453 174.408 299.518 411 486.4 597.408 723.758 834> 333 48<399 673> 638 48<234.378 340.403 463 573.017 657.169 763.402 886 1004.2>
VStem: 180 276<52 608> 603 276<52 608>
Back
325.174 636.087 m 1
 325.174 636.087 l 1
 306.913 637.623 288.652 638.141 270.391 638.243 c 2
 252.13 638.261 l 2
 247.519 638.261 242.774 638.261 238.217 639.47 c 0
 236.131 640 234.058 640.87 232.13 642.106 c 0
 221.443 649.066 222.449 663.478 227.653 673.725 c 0
 228.565 675.508 229.675 677.193 231.009 678.69 c 0
 237.472 685.94 247.055 686.037 256.043 685.812 c 2
 296.913 684.654 l 2
 365.453 682.867 434.019 683.253 502.565 684.348 c 2
 538.652 685.218 l 2
 545.609 685.45 552.938 686.161 559.94 685.322 c 0
 568.452 684.302 575.805 678.696 577.315 669.954 c 0
 577.934 666.366 577.536 662.609 576.741 659.131 c 0
 574.739 650.533 569.956 642.54 561.183 639.775 c 0
 557.148 638.511 552.847 638.377 548.652 638.261 c 2
 534.304 638.26 l 2
 519.384 638.249 504.425 637.994 489.522 637.26 c 0
 484.481 636.957 479.373 636.814 474.389 635.971 c 0
 469.949 635.218 465.689 633.655 463 629.815 c 0
 460.826 626.655 459.834 622.771 458.852 619.106 c 2
 455.174 604.783 l 1
 442.565 554.348 l 1
 415.337 445.218 l 2
 409.956 423.76 404.847 402.174 399.087 380.87 c 1
 684.739 380.87 l 1
 699.25 439.565 l 1
 730.391 564.348 l 1
 748.217 636.087 l 1
 729.866 637.635 711.414 638.153 693 638.245 c 2
 675.174 638.261 l 2
 670.391 638.261 665.513 638.261 660.902 639.565 c 0
 658.902 640.148 656.913 640.975 655.174 642.106 c 0
 643.617 649.565 645.398 666.823 652.565 676.881 c 0
 658.607 685.218 668.302 686.036 677.782 685.842 c 2
 723.869 684.55 l 2
 792.389 682.736 860.999 683.044 929.522 684.348 c 2
 963.869 685.315 l 2
 970.826 685.516 978.217 686.352 985.135 684.985 c 0
 994.729 683.044 1001.04 674.949 1000.63 665.211 c 0
 1000.23 655.479 995.746 644.605 986.316 640.547 c 0
 982.261 638.801 977.782 638.47 973.435 638.344 c 2
 959.956 638.261 l 2
 944.739 638.257 929.502 638.037 914.304 637.342 c 0
 908.966 637.099 903.57 636.9 898.217 636.087 c 0
 894.549 635.544 890.684 634.565 887.862 631.908 c 0
 885.609 629.825 884.304 626.957 883.398 624.176 c 0
 880.803 616.613 879.231 608.621 877.293 600.87 c 2
 867.293 560.87 l 1
 836.641 438.261 l 1
 773.598 186.087 l 2
 762.257 140.722 751.139 95.2947 739.522 50 c 1
 758.884 48.3891 778.356 47.8261 797.783 47.8261 c 2
 815.174 47.78 l 2
 820.094 47.6956 825.174 47.5043 829.776 45.5121 c 0
 831.437 44.7826 833 43.8443 834.4 42.69 c 0
 841.569 36.7739 842.064 27.54 839.79 19.1304 c 0
 837.767 11.6721 833.428 4.78259 825.922 1.95432 c 0
 821.261 0.189977 816.172 0.156933 811.261 0.229977 c 2
 794.304 0.722151 l 2
 773.735 1.30432 753.144 1.99824 732.565 2.16259 c 2
 706.478 2.58563 l 2
 664.022 2.87954 621.536 2.80998 579.087 2.09606 c 0
 562.709 1.82085 546.33 1.40824 529.956 0.869542 c 2
 514.739 0.434759 l 2
 510.566 0.421716 506.286 0.314759 502.13 1.22302 c 0
 495.993 2.59476 490.689 6.75563 488.46 12.7813 c 0
 487.04 16.6235 487.064 20.7869 487.733 24.7813 c 0
 488.945 32.0208 491.988 39.52 498.217 43.7526 c 0
 503.409 47.1935 509.619 47.6456 515.609 47.7691 c 2
 533 47.8261 l 2
 543.146 47.8261 553.293 48.1104 563.435 48.3804 c 0
 576.596 48.6956 589.676 49.323 602.565 52.1739 c 1
 623.815 137.826 l 1
 672.565 333.043 l 1
 387.348 333.043 l 1
 386.913 332.609 l 1
 376.424 289.565 l 1
 359.902 223.478 l 1
 316.478 50 l 1
 335.84 48.3891 355.313 47.8261 374.739 47.8261 c 2
 392.13 47.78 l 2
 397.05 47.6956 402.13 47.5043 406.732 45.5122 c 0
 408.394 44.7826 409.957 43.8443 411.356 42.69 c 0
 418.525 36.7739 419.02 27.54 416.746 19.1304 c 0
 414.723 11.6722 410.385 4.7826 402.878 1.95434 c 0
 398.217 0.189996 393.128 0.156952 388.217 0.229996 c 2
 371.261 0.72217 l 2
 350.691 1.30434 330.1 1.99826 309.522 2.1626 c 2
 283.435 2.58565 l 2
 240.979 2.87956 198.493 2.81 156.043 2.09608 c 0
 139.666 1.82087 123.286 1.40826 106.913 0.869561 c 2
 91.6956 0.434778 l 2
 87.5221 0.4213 83.2426 0.314779 79.0869 1.22304 c 0
 72.9495 2.59478 67.6452 6.75565 65.4169 12.7813 c 0
 63.9965 16.6235 64.0208 20.787 64.6895 24.7813 c 0
 65.9017 32.0209 68.9448 39.52 75.1739 43.7526 c 0
 80.3656 47.1935 86.5756 47.6456 92.5652 47.7691 c 2
 109.956 47.8261 l 2
 120.102 47.8261 130.25 48.1104 140.391 48.3804 c 0
 153.553 48.6956 166.633 49.323 179.522 52.1739 c 1
 194.141 111.304 l 1
 218.815 210 l 1
 293.163 507.391 l 1
 312.946 586.522 l 1
 325.174 636.087 l 1
EndSplineSet
Fore
64 20 m 0
 64 45 82 48 93 48 c 2
 110 48 l 2
 145 48 166 49 180 52 c 1
 325 636 l 1
 307 638 289 638 270 638 c 2
 251 638 l 2
 235 638 224 643 224 659 c 0
 224 671 229 686 252 686 c 0
 267 686 311 683 398 683 c 0
 502 683 533 686 550 686 c 0
 565 686 577 683 577 665 c 0
 577 653 572 638 549 638 c 2
 513 638 l 2
 463 638 463 638 456 608 c 2
 399 381 l 1
 685 381 l 1
 748 636 l 1
 730 638 711 638 693 638 c 2
 673 638 l 2
 658 638 647 643 647 659 c 0
 647 669 651 686 676 686 c 0
 690 686 735 683 825 683 c 0
 934 683 961 686 974 686 c 0
 992 686 1001 679 1001 666 c 0
 1001 657 997 638 973 638 c 2
 935.995 638 l 2
 886 638 886.446 637.893 879 608 c 2
 740 50 l 1
 759 48 778 48 798 48 c 2
 817 48 l 2
 834 48 841 38 841 27 c 0
 841 14 835 0 812 0 c 0
 797 0 752 3 661 3 c 0
 573 3 529 0 515 0 c 0
 493 0 487 9 487 19 c 0
 487 29 491 48 516 48 c 2
 533 48 l 2
 568 48 589 49 603 52 c 1
 673 333 l 1
 387 333 l 1
 316 50 l 1
 336 48 355 48 375 48 c 2
 394 48 l 2
 411 48 418 38 418 27 c 0
 418 14 412 0 389 0 c 0
 374 0 329 3 238 3 c 0
 150 3 106 0 92 0 c 0
 76 0 64 4 64 20 c 0
EndSplineSet
EndChar
StartChar: afii10031
Encoding: 1053 1053 13
Width: 896
Flags: W
TeX: 0 0 0 0
HStem: 0 48<73.2453 174.408 299.518 411 486.4 597.408 723.758 834> 333 48<399 673> 638 48<234.378 340.403 463 573.017 657.169 763.402 886 1004.2>
VStem: 180 276<52 608> 603 276<52 608>
Back
325.739 636.087 m 5
 325.739 636.087 l 5
 307.478 637.623 289.218 638.14 270.957 638.243 c 6
 253.131 638.261 l 6
 248.517 638.261 243.768 638.261 239.218 639.407 c 4
 237.044 639.956 234.998 640.806 233.105 642.012 c 4
 222.225 648.934 223.072 663.422 228.271 673.721 c 4
 229.171 675.503 230.27 677.186 231.595 678.681 c 4
 238.034 685.939 247.635 686.037 256.609 685.812 c 6
 297.044 684.666 l 6
 365.731 682.892 434.435 683.251 503.131 684.348 c 6
 539.218 685.217 l 6
 546.112 685.446 553.131 686.087 560.074 685.356 c 4
 568.571 684.434 576.075 679.112 577.764 670.379 c 4
 578.484 666.659 578.066 662.802 577.234 659.13 c 4
 575.286 650.542 570.522 642.573 561.746 639.79 c 4
 557.712 638.516 553.413 638.378 549.218 638.261 c 6
 534.87 638.26 l 6
 519.95 638.249 504.99 637.994 490.087 637.26 c 4
 485.047 636.957 479.938 636.814 474.954 635.971 c 4
 470.514 635.217 466.255 633.654 463.565 629.815 c 4
 461.391 626.655 460.4 622.771 459.417 619.106 c 6
 455.739 604.783 l 5
 443.131 554.348 l 5
 415.685 444.348 l 6
 410.393 423.18 405.304 401.937 399.652 380.87 c 5
 684 380.87 l 5
 701.772 452.609 l 5
 732.696 576.522 l 5
 747.478 636.087 l 5
 729.217 637.623 710.957 638.141 692.696 638.243 c 6
 674.435 638.261 l 6
 669.821 638.261 665.064 638.261 660.522 639.519 c 4
 658.558 640 656.609 640.87 654.844 642.012 c 4
 643.111 649.478 644.663 666.701 651.9 676.874 c 4
 657.759 685.11 667.282 686.022 676.609 685.85 c 6
 723.131 684.55 l 6
 791.65 682.736 860.26 683.043 928.783 684.348 c 6
 963.13 685.315 l 6
 969.976 685.512 977.187 686.286 983.966 685.049 c 4
 993.74 683.264 1000.3 675.147 999.842 665.211 c 4
 999.399 655.499 994.986 644.636 985.572 640.565 c 4
 981.52 638.812 977.044 638.472 972.696 638.345 c 6
 959.217 638.261 l 6
 944 638.257 928.764 638.037 913.565 637.342 c 4
 908.227 637.099 902.831 636.9 897.478 636.087 c 4
 893.94 635.563 890.207 634.641 887.412 632.171 c 4
 885.141 630.165 883.799 627.391 882.801 624.585 c 4
 880.087 617.061 878.598 609.041 876.609 601.304 c 6
 866.555 560.87 l 5
 835.902 438.261 l 5
 772.641 185.217 l 6
 761.373 140.142 750.326 95.0052 738.783 50 c 5
 758.145 48.3891 777.617 47.8261 797.044 47.8261 c 6
 814.435 47.7778 l 6
 819.355 47.6896 824.435 47.4835 829.034 45.4904 c 4
 830.693 44.7683 832.255 43.8261 833.651 42.6087 c 4
 840.828 36.7526 841.249 27.5322 838.978 19.1304 c 4
 836.914 11.5204 832.488 4.58 824.761 1.81739 c 4
 819.946 0.095221 814.698 0.148699 809.652 0.245656 c 6
 792.261 0.761743 l 6
 771.392 1.38392 750.522 2.02087 729.652 2.17392 c 6
 705.739 2.58566 l 6
 663.283 2.87957 620.798 2.81 578.348 2.09609 c 4
 562.115 1.82348 545.881 1.41783 529.652 0.950004 c 6
 514.435 0.51783 l 6
 510.259 0.428265 505.977 0.303917 501.826 1.17348 c 4
 495.599 2.49913 490.18 6.68218 487.888 12.7544 c 4
 486.438 16.5978 486.455 20.7739 487.044 24.7809 c 4
 488.265 31.8591 491.134 39.2043 497.18 43.4783 c 4
 502.358 47.1478 508.725 47.6413 514.87 47.7691 c 6
 531.826 47.8261 l 6
 541.972 47.8261 552.118 48.1074 562.261 48.3691 c 4
 575.565 48.6957 588.783 49.2922 601.826 52.1739 c 5
 622.967 137.391 l 5
 671.826 333.043 l 5
 387.913 333.043 l 5
 387.478 332.609 l 5
 377.044 290 l 5
 360.522 223.913 l 5
 317.044 50 l 5
 336.406 48.3891 355.878 47.8261 375.304 47.8261 c 6
 392.696 47.7778 l 6
 397.616 47.6896 402.696 47.4835 407.295 45.4905 c 4
 408.954 44.7683 410.515 43.8261 411.911 42.6087 c 4
 419.089 36.7526 419.51 27.5322 417.239 19.1305 c 4
 415.175 11.5205 410.748 4.58002 403.022 1.81741 c 4
 398.207 0.0952391 392.959 0.148717 387.913 0.245674 c 6
 370.522 0.761761 l 6
 349.652 1.38393 328.783 2.02089 307.913 2.17393 c 6
 284 2.58567 l 6
 241.544 2.87959 199.058 2.81002 156.609 2.09611 c 4
 140.376 1.8235 124.141 1.41785 107.913 0.950022 c 6
 92.6956 0.517848 l 6
 88.5196 0.428283 84.2374 0.303935 80.0869 1.1735 c 4
 73.86 2.49915 68.4404 6.6822 66.1491 12.7544 c 4
 64.7513 16.4574 64.7152 20.4348 65.3043 24.3465 c 4
 66.4017 31.5596 69.3061 39.1231 75.4548 43.4783 c 4
 80.6265 47.1505 86.9909 47.6413 93.1304 47.7692 c 6
 110.087 47.8261 l 6
 120.233 47.8261 130.379 48.1074 140.522 48.3692 c 4
 153.826 48.6957 167.043 49.2922 180.087 52.1739 c 5
 194.598 110.87 l 5
 219.217 209.565 l 5
 293.837 507.826 l 5
 313.565 586.957 l 5
 325.739 636.087 l 5
EndSplineSet
Refer: 12 72 N 1 0 0 1 0 0 2
EndChar
StartChar: P
Encoding: 80 80 14
Width: 787
Flags: MW
TeX: 0 0 0 0
HStem: 0 48<63.3 173.695 299.759 411> 301 42<384 594.428> 638 48<234.169 340.343 457 630.693>
VStem: 179 278<52 637> 687 137<527.95 661.568>
Back
324.739 636.087 m 1
 324.739 636.087 l 1
 306.478 637.623 288.217 638.14 269.957 638.243 c 2
 251.696 638.261 l 2
 247.081 638.261 242.325 638.261 237.783 639.519 c 0
 235.819 640 233.87 640.87 232.104 642.012 c 0
 220.564 649.355 221.97 665.854 228.652 676.087 c 0
 236.299 687.813 251.257 686.085 263.435 686.087 c 2
 354.304 686.087 l 1
 575.609 686.087 l 2
 598.347 686.087 621.161 686.639 643.87 685.217 c 0
 679.664 683.043 716.131 676.294 748.217 659.671 c 0
 762.805 652.113 776.421 642.456 787.916 630.685 c 0
 796.288 622.111 803.405 612.364 808.951 601.739 c 0
 833.87 553.913 826.16 495.01 802.819 448.261 c 0
 798.628 439.867 793.87 431.727 788.745 423.913 c 0
 782.457 414.454 775.497 405.43 767.93 396.957 c 0
 758.438 386.331 748.064 376.451 736.913 367.579 c 0
 692.281 332.067 636.478 312.174 580.391 304.699 c 0
 549.19 300.538 517.881 300.87 486.478 300.87 c 2
 378.652 300.87 l 1
 353 197.826 l 1
 316.044 50 l 1
 335.406 48.3891 354.878 47.8261 374.304 47.8261 c 2
 391.696 47.7778 l 2
 396.616 47.6896 401.696 47.4839 406.294 45.4905 c 0
 407.952 44.7683 409.514 43.8261 410.909 42.6087 c 0
 417.939 36.8683 418.48 27.8261 416.345 19.5652 c 0
 414.304 11.7392 409.905 4.63611 402.022 1.81741 c 0
 397.207 0.0952391 391.959 0.148717 386.913 0.245674 c 2
 369.522 0.761761 l 2
 348.652 1.38393 327.783 2.02089 306.913 2.17393 c 2
 283 2.58567 l 2
 240.544 2.87959 198.058 2.81002 155.609 2.09611 c 0
 139.376 1.8235 123.141 1.41785 106.913 0.950022 c 2
 91.6956 0.517848 l 2
 87.5196 0.428283 83.2374 0.303935 79.0869 1.1735 c 0
 72.86 2.49915 67.4404 6.6822 65.1491 12.7544 c 0
 63.7513 16.4574 63.7152 20.4348 64.3043 24.3465 c 0
 65.4017 31.5596 68.3061 39.1231 74.4548 43.4783 c 0
 79.6265 47.1505 85.9909 47.6413 92.1304 47.7692 c 2
 109.087 47.8261 l 2
 119.233 47.8261 129.379 48.1074 139.522 48.3692 c 0
 152.826 48.6957 166.043 49.2922 179.087 52.1739 c 1
 193.598 110.87 l 1
 218.217 209.565 l 1
 292.837 507.826 l 1
 312.565 586.957 l 1
 324.739 636.087 l 1
383.87 343.043 m 1
 383.87 343.043 l 1
 476.913 343.043 l 2
 494.908 343.043 512.9 342.885 530.826 344.728 c 0
 561.47 347.826 592.131 356.73 616.893 375.652 c 0
 622.217 379.76 627.192 384.287 631.661 389.29 c 0
 641.261 400.09 648.43 412.833 654.114 426.087 c 0
 662.089 444.68 667.328 464.342 672.282 483.913 c 0
 677.296 503.718 682.476 523.636 685.174 543.913 c 0
 688.014 564.883 688.557 588.113 674.654 605.52 c 0
 670.921 610.194 666.478 614.304 661.654 617.815 c 0
 650.122 626.182 636.415 630.959 622.565 633.817 c 0
 601.115 638.243 579.087 638.261 557.348 638.261 c 2
 506.913 638.261 l 2
 490.193 638.261 473.562 638.261 456.913 636.522 c 1
 407.185 437.391 l 1
 393.163 381.304 l 1
 383.87 343.043 l 1
EndSplineSet
Fore
64 20 m 0
 64 32 69 48 92 48 c 2
 109 48 l 2
 144 48 166 49 179 52 c 1
 325 636 l 1
 306 638 288 638 270 638 c 2
 250 638 l 2
 235 638 224 643 224 659 c 0
 224 683 241 686 255 686 c 2
 616 686 l 2
 708 686 824 656 824 536 c 0
 824 443 748 327 580 305 c 0
 553 301 526 301 499 301 c 0
 379 301 l 1
 316 50 l 1
 335 48 355 48 374 48 c 2
 393 48 l 2
 411 48 418 38 418 27 c 0
 418 17 413 0 390 0 c 0
 375 0 329 3 238 3 c 0
 119 3 98 0 88 0 c 0
 69 0 64 12 64 20 c 0
687 565 m 0
 687 639.283 604.654 638 557 638 c 2
 507 638 l 2
 490 638 474 638 457 637 c 1
 384 343 l 1
 484 343 l 2
 610 343 645 378 672 484 c 0
 684 532 687 549 687 565 c 0
EndSplineSet
EndChar
StartChar: X
Encoding: 88 88 15
Width: 865
Flags: W
TeX: 0 0 0 0
HStem: 0 48<75.347 217.2 696.5 800.869> 638 48<250.46 341.8 775.4 914.653>
Back
452.391 336.522 m 1
 452.392 336.521 l 1
 425.627 401.695 399.668 467.217 373.439 532.608 c 2
 348.293 595.217 l 1
 340.392 614.78 l 2
 338.572 619.296 336.891 624.019 334.314 628.173 c 0
 333.205 629.961 331.873 631.618 330.202 632.911 c 0
 325.283 636.718 318.332 636.869 312.39 637.238 c 0
 296.305 638.237 280.218 637.906 264.131 638.338 c 0
 255.628 638.565 246.739 640.284 242.107 648.223 c 0
 241.285 649.565 240.652 651.13 240.218 652.697 c 0
 239.721 654.653 239.539 656.683 239.596 658.695 c 0
 239.692 662.077 240.388 665.457 241.407 668.668 c 0
 242.192 671.141 243.217 673.478 244.566 675.745 c 0
 245.608 677.318 246.739 678.776 248.155 680 c 0
 255.536 686.927 266.111 685.971 275.435 685.64 c 2
 298.479 684.782 l 2
 363.684 682.868 428.913 683.218 494.131 684.316 c 2
 545 685.591 l 2
 553.902 685.767 563.394 685.294 569.014 677.295 c 0
 572.392 672.453 572.81 666.522 571.817 660.869 c 0
 570.386 652.692 566.593 644.463 558.695 640.796 c 0
 554.283 638.695 549.348 638.429 544.565 638.199 c 2
 529.783 637.504 l 2
 514.299 636.522 499.039 634.337 483.696 632.174 c 1
 502.214 585.217 l 1
 538.044 496.087 l 1
 556.305 450 l 1
 615.435 513.913 l 1
 720.218 627.391 l 1
 705.87 632.174 691.376 635.579 676.305 637.032 c 0
 671.087 637.534 665.87 637.807 660.652 638.118 c 0
 655.571 638.42 650.311 638.785 645.708 641.17 c 0
 644.23 641.937 642.826 642.889 641.616 644.01 c 0
 634.906 650.123 634.795 659.13 637.094 667.376 c 0
 638.379 671.943 640.446 676.378 643.885 679.727 c 0
 647.739 683.478 652.773 685.207 658.044 685.652 c 0
 666.305 686.382 674.926 685.516 683.261 685.217 c 2
 725.87 684.072 l 2
 766.413 683.043 807.063 683.02 847.609 683.857 c 2
 881.087 684.783 l 2
 887.749 685.03 894.42 685.436 901.086 685.473 c 0
 909.868 685.523 918.739 683.211 922.769 674.561 c 0
 924.834 670.13 924.792 665.156 923.913 660.435 c 0
 922.232 651.417 917.609 642.792 908.384 639.833 c 0
 903.396 638.233 898.007 638.261 892.826 638.203 c 0
 886.158 638.053 879.488 637.826 872.826 637.496 c 0
 858.831 636.773 844.862 635.379 831.087 632.759 c 0
 823.261 631.28 815.523 629.522 808.044 626.909 c 0
 789.783 620.532 775.756 606.478 762.826 592.6 c 2
 737.174 564.783 l 1
 633.696 452.609 l 1
 601.957 418.261 l 1
 591.696 406.957 l 2
 589.056 403.913 586.305 400.87 584.444 397.391 c 0
 580.918 390.825 583.141 384.314 585.642 377.826 c 2
 591.176 363.913 l 1
 624.565 280.87 l 1
 686.652 126.522 l 1
 705.348 80 l 1
 711.087 65.6522 l 2
 712.654 62.1487 714.131 58.4578 716.671 55.4752 c 0
 721.719 49.387 730.329 49.2378 737.609 48.8018 c 0
 749.321 48.1004 761.087 47.8261 772.826 47.8261 c 0
 780.204 47.8117 788.188 48.5235 795.375 46.5217 c 0
 797.392 45.9922 799.334 45.1704 801.087 44.0431 c 0
 802.515 43.1383 803.813 42.0474 804.94 40.8009 c 0
 811.021 34.0804 810.309 24.58 807.541 16.5217 c 0
 806.689 14.0874 805.573 11.697 804.078 9.54827 c 0
 803.097 8.13784 801.957 6.8361 800.652 5.65219 c 0
 794.041 -0.178684 785 0.0856635 776.739 0.343924 c 2
 763.261 0.823055 l 2
 739.505 1.64784 715.726 2.33175 691.957 2.57088 c 0
 672.684 2.76479 653.404 2.60871 634.13 2.60871 c 0
 598.472 2.60871 562.821 2.10175 527.174 1.1374 c 2
 502.826 0.434794 l 2
 496.24 0.386098 489.348 0.632185 483.932 4.78262 c 0
 476.42 10.69 475.87 20.1304 478.19 28.6839 c 0
 479.922 35.0874 483.261 41.1735 489.221 44.5465 c 0
 493.696 47.1348 499.013 47.5978 504.13 47.8261 c 2
 518.043 48.507 l 2
 534.117 49.4109 550.047 51.3896 565.87 54.3478 c 1
 514.385 182.174 l 1
 475 280.435 l 1
 419.114 220 l 1
 270.217 58.6956 l 1
 284.565 53.913 299.063 50.5078 314.13 49.0552 c 0
 319.339 48.553 324.56 48.2609 329.782 47.9722 c 0
 334.865 47.6739 340.126 47.3243 344.73 44.9383 c 0
 346.212 44.17 347.596 43.2148 348.83 42.0909 c 0
 355.533 35.9856 355.72 26.8922 353.409 18.6956 c 0
 352.116 14.1317 350.012 9.69174 346.562 6.34 c 0
 342.699 2.58695 337.609 0.869561 332.385 0.419561 c 0
 323.918 -0.301743 315.217 0.579996 306.739 0.860866 c 2
 263.696 2.03608 l 2
 222.707 2.98043 181.643 2.98043 140.652 2.17391 c 0
 129.345 1.96739 118.04 1.61695 106.739 1.19869 c 0
 99.9539 0.947388 93.0982 0.369562 86.3043 0.649996 c 0
 77.9235 0.996518 69.9287 4.78261 66.9987 13.1696 c 0
 65.4348 17.4656 65.7787 22.1287 66.7052 26.5161 c 0
 68.6126 35.5509 73.5382 43.8809 82.9013 46.5074 c 0
 87.6087 47.8261 92.7126 47.773 97.6087 47.8261 c 2
 115.87 48.4987 l 2
 132.213 49.2648 148.478 50.9474 164.565 54.3478 c 0
 174.096 56.407 183.696 58.8717 192.391 63.4783 c 0
 208.478 72.1552 220.948 86.3026 233.194 99.5652 c 2
 279.314 149.565 l 1
 388.844 268.261 l 1
 424.933 307.391 l 2
 433.986 317.198 442.974 327.061 452.391 336.522 c 1
EndSplineSet
Fore
66 20 m 0
 66 46 87 48 95 48 c 0
 189 48 204 67 233 100 c 2
 452 337 l 1
 340 615 l 2
 331 638 331 638 295 638 c 2
 278 638 l 2
 252 638 240 640 240 659 c 0
 240 686 263 686 271 686 c 0
 297 686 297 683 398 683 c 0
 488 683 544 686 546 686 c 0
 566 686 573 676 573 666 c 0
 573 656 566 644 559 641 c 0
 546 635 551 642 484 632 c 1
 556 450 l 1
 720 627 l 1
 666 646 636 629 636 659 c 0
 636 672 642 686 665 686 c 0
 677 686 715 683 791 683 c 0
 856 683 889 685 900 685 c 0
 913 685 924 682 924 666 c 0
 924 640 903 638 895 638 c 0
 803 638 786 617 763 593 c 2
 580 394 l 1
 711 66 l 2
 718 49 716 48 781 48 c 0
 795 48 810 46 810 27 c 0
 810 3 791 0 783 0 c 0
 772 0 738 3 673 3 c 0
 537 3 520 0 503 0 c 0
 483 0 477 10 477 20 c 0
 477 58 512 44 566 54 c 1
 475 280 l 1
 270 59 l 1
 324 41 355 57 355 27 c 0
 355 14 349 0 326 0 c 0
 313 0 276 3 200 3 c 0
 147 3 111 0 92 0 c 0
 78.25 0 66 4 66 20 c 0
EndSplineSet
EndChar
StartChar: afii10068
Encoding: 1075 1075 16
Width: 488
Flags: W
TeX: 0 0 0 0
HStem: -11 36<200.9 287.134> 419 37<253.4 396.4>
VStem: 97 105<48.8 175.8> 394 105<267.9 395.2>
Back
339.174 455.402 m 1
 339.174 455.402 l 1
 348.731 455.749 358.304 455.748 367.87 455.183 c 0
 374.999 454.761 382.113 454.046 389.174 452.969 c 0
 425.476 447.391 464.377 432.785 485.417 400.865 c 0
 488.138 396.736 490.478 392.375 492.443 387.826 c 0
 494.995 381.841 496.81 375.549 497.868 369.13 c 0
 499.429 359.663 499.361 349.917 497.958 340.435 c 0
 495.972 326.956 491.566 313.913 485.659 301.739 c 0
 477.87 285.778 467.574 271.166 455.407 258.261 c 0
 424.547 225.609 384.273 202.609 342.217 187.529 c 0
 318.183 178.912 293.324 172.882 269.609 163.319 c 0
 258.739 158.95 248.103 153.997 238.304 147.588 c 0
 227.87 140.774 218.223 132.105 211.783 121.301 c 0
 207.137 113.331 204.723 104.325 203.434 95.2173 c 0
 201.729 83.1764 201.761 70.4347 205.101 58.6955 c 0
 206.391 54.1494 208.217 49.7486 210.669 45.652 c 0
 212.63 42.4673 214.977 39.4625 217.68 36.8125 c 0
 220.044 34.4355 222.814 32.3473 225.696 30.669 c 0
 237.781 23.8425 252.478 25.0673 265.696 26.4964 c 0
 310.258 31.3042 352.883 51.2703 387 79.9999 c 0
 393.326 85.3655 399.329 91.0655 405.109 96.9564 c 0
 409.025 100.992 412.75 105.214 416.832 109.058 c 0
 422.174 114.088 428.706 117.958 436.077 114.782 c 0
 440.777 112.841 444.66 109.096 448.169 105.488 c 0
 453.087 100.4 459.174 94.0203 459.708 86.5216 c 0
 460.15 79.442 455.153 73.2742 450.759 68.2607 c 0
 440.714 56.8347 428.941 46.7364 416.565 37.9086 c 0
 379.587 11.532 335.228 -2.68361 290.478 -8.39231 c 0
 271.783 -10.7771 252.796 -11.7393 233.956 -11.1045 c 0
 226.396 -10.8697 218.847 -10.2127 211.348 -9.21839 c 0
 205.368 -8.42579 199.418 -7.40318 193.522 -6.12622 c 0
 156.865 1.81334 118.286 21.1829 103.412 57.826 c 0
 100.81 64.236 99.0691 70.9755 98.1248 77.826 c 0
 96.8487 87.0877 97.1713 96.4425 98.7122 105.652 c 0
 101.017 119.427 105.696 132.768 112.03 145.217 c 0
 120.27 161.556 131.337 176.417 144.151 189.451 c 0
 174.79 220.613 214.335 242.609 255.261 257.226 c 0
 289.609 269.489 326.788 276.475 357.867 296.619 c 0
 368.256 303.352 377.87 311.917 384.3 322.609 c 0
 388.998 330.435 391.455 339.289 392.83 348.261 c 0
 394.549 359.477 394.698 371.063 392.18 382.174 c 0
 391.088 386.956 389.458 391.697 387.158 396.073 c 0
 385.261 399.543 383.087 402.793 380.448 405.652 c 0
 378.109 408.261 375.466 410.563 372.556 412.467 c 0
 360.255 420.515 344.826 419.347 330.913 417.826 c 0
 286.403 413.15 243.718 393.177 209.609 364.516 c 0
 203.478 359.364 197.608 353.903 192.005 348.182 c 0
 187.969 344.06 184.156 339.708 180.001 335.652 c 0
 174.927 330.818 168.633 326.522 161.348 329.13 c 0
 156.392 330.87 152.301 334.76 148.67 338.434 c 0
 143.733 343.429 137.667 349.65 136.736 356.957 c 0
 135.916 363.397 139.866 369.13 143.735 373.903 c 0
 152.182 384.26 162.54 393.286 173.087 401.439 c 0
 220.213 437.826 280.438 453.267 339.174 455.402 c 1
EndSplineSet
Fore
97 90 m 0
 97 156 161 223 255 257 c 0
 316 279 394 288 394 364 c 0
 394 388 385 419 347 419 c 0
 275 419 206 367 187 343 c 0
 185 341 174 328 166 328 c 0
 154 328 137 349 137 358 c 0
 137 378 211 456 351 456 c 0
 440 456 499 415 499 355 c 0
 499 288 435 221 342 188 c 0
 283 166 202 157 202 80 c 0
 202 56 212 25 249 25 c 0
 264 25 338 28 405 97 c 0
 414 106 421 116 430 116 c 0
 441 116 460 96 460 86 c 0
 460 67 384 -11 246 -11 c 0
 157 -11 97 29 97 90 c 0
EndSplineSet
EndChar
StartChar: M
Encoding: 77 77 17
Width: 1073
Flags: MW
TeX: 0 0 0 0
HStem: 0 48<256.529 345.2 679.7 790.408 899.759 1004.3> 638 48<234.378 340.403 1069 1170.16>
VStem: 180 202<65 610> 796 263<52 620>
Back
325.174 636.087 m 1
 325.174 636.087 l 1
 306.913 637.623 288.652 638.14 270.391 638.243 c 2
 252.13 638.261 l 2
 247.519 638.261 242.774 638.261 238.217 639.47 c 0
 236.131 640 234.058 640.869 232.13 642.106 c 0
 220.785 649.492 222.371 665.981 229.041 676.087 c 0
 229.956 677.535 231.061 678.852 232.3 680 c 0
 238.534 685.858 247.126 686.009 255.174 686.069 c 2
 284.739 686.087 l 1
 430.826 686.087 l 1
 452.13 686.079 l 2
 461.629 686.043 472.006 686.193 479.356 679.13 c 0
 480.707 677.826 481.888 676.432 482.883 674.782 c 0
 486.634 668.896 487.524 661.594 488.622 654.782 c 2
 493.181 626.087 l 1
 509.952 520 l 1
 549.339 270.869 l 1
 561.993 190.869 l 2
 564.646 174.051 566.889 157.102 570.391 140.435 c 1
 581.022 157.651 592.417 174.348 603.543 191.304 c 2
 656.759 272.174 l 1
 815.854 513.913 l 1
 888.817 624.782 l 1
 908.849 655.216 l 2
 914.304 663.478 919.872 672.121 927.979 678.097 c 0
 932.21 681.216 937.008 683.478 942.13 684.701 c 0
 948.652 686.228 955.471 686.07 962.13 686.083 c 2
 986.913 686.087 l 1
 1119.96 686.087 l 1
 1144.3 686.085 l 2
 1149.91 686.078 1155.71 686.338 1161.23 685.208 c 0
 1168.39 683.739 1174.56 678.88 1176.48 671.651 c 0
 1177.45 668.133 1177.3 664.428 1176.66 660.869 c 0
 1175.37 653.724 1172.27 646.424 1166.03 642.272 c 0
 1161.7 639.434 1156.71 638.644 1151.69 638.408 c 0
 1143.6 638.028 1135.45 638.261 1127.35 638.243 c 0
 1114.74 638.172 1102.11 637.826 1089.52 637.281 c 0
 1084.3 637.031 1079.08 636.837 1073.95 635.97 c 0
 1070.1 635.318 1066.23 634.088 1063.57 631.064 c 0
 1060.83 627.992 1059.71 623.826 1058.65 619.965 c 0
 1053.4 600.824 1048.95 581.429 1044.14 562.174 c 2
 1016.64 452.174 l 1
 951.098 190 l 2
 939.43 143.33 927.994 96.5969 916.043 50 c 1
 935.405 48.3891 954.878 47.826 974.304 47.826 c 2
 991.695 47.78 l 2
 996.615 47.6956 1001.7 47.5043 1006.3 45.5121 c 0
 1007.96 44.7826 1009.52 43.8439 1010.92 42.69 c 0
 1017.96 36.8843 1018.57 27.8261 1016.43 19.5652 c 0
 1014.41 11.7391 1009.92 4.60388 1002.02 1.73909 c 0
 997.343 0.139964 992.252 0.161268 987.347 0.253007 c 2
 970.826 0.763442 l 2
 951.124 1.30431 931.407 2.0004 911.695 2.17388 c 0
 863.724 2.60866 815.753 2.94692 767.782 2.08909 c 0
 752.419 1.81431 737.054 1.40344 721.695 0.946485 c 2
 707.347 0.523442 l 2
 703.316 0.434746 699.19 0.348659 695.174 1.22431 c 0
 689.036 2.59301 683.731 6.75649 681.504 12.7813 c 0
 680.083 16.6234 680.107 20.7869 680.776 24.7813 c 0
 682.014 32.173 685.168 39.8213 691.695 44.0021 c 0
 696.765 47.2304 702.818 47.6487 708.652 47.7691 c 2
 726.478 47.8261 l 2
 736.478 47.8261 746.478 48.1143 756.478 48.3804 c 0
 769.64 48.6956 782.719 49.323 795.609 52.1739 c 1
 807.728 101.304 l 1
 826.913 178.261 l 1
 899.522 468.696 l 1
 923.598 564.783 l 1
 937.782 622.174 l 1
 937.348 622.174 l 1
 931.412 612.274 924.994 602.682 918.647 593.043 c 2
 895.174 557.391 l 1
 825.935 452.174 l 1
 618.208 136.522 l 1
 570.132 63.4782 l 2
 561.641 50.5739 553.313 37.5426 544.593 24.7826 c 0
 540.193 18.3569 535.372 12.13 528.966 7.56477 c 0
 521.397 2.17173 512.565 0.175642 503.435 0.163033 c 0
 499.22 0.157381 494.914 0.434772 490.826 1.73912 c 0
 488.999 2.36999 487.189 3.20216 485.518 4.26477 c 0
 473.87 11.6713 473.428 27.2939 471.49 39.5652 c 2
 454.304 147.826 l 1
 406.043 453.043 l 1
 390.574 551.304 l 2
 387.533 570.558 384.167 589.794 381.696 609.13 c 1
 381.261 609.13 l 1
 368.054 555.217 l 1
 345.772 466.087 l 1
 279.087 199.565 l 1
 257.076 111.304 l 1
 243.87 57.8261 l 1
 249.014 55.9139 254.185 54.15 259.522 52.8739 c 0
 271.622 49.9861 284.086 48.9257 296.478 48.3631 c 0
 302.418 48.0931 308.36 47.9292 314.304 47.8261 c 0
 319.202 47.7709 324.263 47.8261 329.023 46.5218 c 0
 331.181 45.9426 333.253 45.037 335.111 43.7822 c 0
 342.716 38.6492 344.303 29.7822 342.488 21.3044 c 0
 340.581 12.4005 335.609 4.05351 326.412 1.40004 c 0
 318.583 -0.853878 309.715 0.401774 301.696 0.72134 c 0
 287.931 1.2696 274.162 1.70395 260.391 2.03743 c 0
 216.218 3.04351 171.952 3.00917 127.783 1.81438 c 2
 102.565 1.03699 l 2
 97.0678 0.838296 91.5491 0.434818 86.0435 0.577427 c 0
 78.0726 0.717427 70.2109 3.23308 66.3074 10.7653 c 0
 63.8465 15.5135 63.8696 20.9557 64.9305 26.0831 c 0
 66.4613 33.6557 70.0478 41.2087 77.1922 44.9048 c 0
 79.1626 45.924 81.2609 46.5218 83.4348 46.9566 c 0
 91.6304 48.5783 100.37 47.8261 108.652 48.134 c 0
 123.372 48.6626 138.098 49.7035 152.565 52.5966 c 0
 162.034 54.49 174.139 56.7018 180.357 64.86 c 0
 183.233 68.6326 184.533 73.3257 185.735 77.8261 c 0
 194.304 110.162 202.007 142.766 210.12 175.217 c 2
 257.728 365.652 l 1
 301.424 540.435 l 2
 309.389 572.296 317.783 604.083 325.174 636.087 c 1
938.217 622.609 m 1
 937.782 622.174 l 1
 938.217 622.609 l 1
EndSplineSet
Fore
64 20 m 0
 64 31 70 45 83 47 c 0
 97 50 166 46 180 65 c 0
 186 73 193 109 210 175 c 2
 325 636 l 1
 307 638 289 638 270 638 c 2
 251 638 l 2
 235 638 224 643 224 659 c 0
 224 684 245 686 253 686 c 2
 453 686 l 2
 474 686 485 683 489 655 c 2
 570 140 l 1
 909 655 l 2
 926 682 936 686 959 686 c 2
 1150 686 l 2
 1165 686 1177 682 1177 666 c 0
 1177 638 1156 638 1139 638 c 2
 1127 638 l 2
 1069 638 1063 637 1059 620 c 0
 1053 601 1049 581 1044 562 c 2
 916 50 l 1
 935 48 955 48 974 48 c 2
 993 48 l 2
 1011 48 1018 38 1018 27 c 0
 1018 2 997 0 990 0 c 0
 987 0 l 2
 971 0 956 3 829 3 c 0
 756 3 719 0 707 0 c 0
 686 0 680 9 680 19 c 0
 680 29 685 48 709 48 c 2
 726 48 l 2
 761 48 782 49 796 52 c 1
 938 623 l 1
 545 25 l 2
 534 9 523 0 503 0 c 0
 474 0 474 22 471 40 c 2
 382 610 l 1
 244 58 l 1
 263 50 288 48 314 48 c 0
 338 48 343 38 343 28 c 0
 343 20 340 0 315 0 c 0
 304 0 270 3 202 3 c 0
 134 3 101 0 90 0 c 0
 76 0 64 4 64 20 c 0
EndSplineSet
EndChar
StartChar: J
Encoding: 74 74 18
Width: 610
Flags: MW
TeX: 0 0 0 0
HStem: -22 37<185.9 311.2> 636 47<336.578 497.523 601.704 684.169>
VStem: 357 244<186 635>
Back
469.13 635.652 m 1
 469.13 635.652 l 1
 449.119 636.956 429.13 637.506 409.13 637.984 c 0
 395.217 638.261 381.304 638.24 367.391 638.261 c 0
 359.565 638.261 350.769 637.664 343.913 642.055 c 0
 342.608 642.877 341.454 643.852 340.405 644.958 c 0
 334.577 651.108 334.633 659.677 336.808 667.377 c 0
 338.144 672.106 340.349 676.684 343.994 680 c 0
 347.699 683.478 352.435 685.15 357.391 685.652 c 0
 366.266 686.522 375.456 685.652 384.348 685.407 c 0
 399.994 684.977 415.652 684.549 431.304 684.348 c 2
 486.956 683.478 l 2
 506.374 683.333 525.799 683.478 545.217 683.478 c 0
 563.192 683.478 581.16 683.404 599.13 683.796 c 0
 618.41 684.217 637.682 684.667 656.956 685.332 c 0
 665.881 685.64 676.219 686.706 683.232 679.993 c 0
 689.263 674.219 689.565 665.922 687.702 658.261 c 0
 685.966 651.296 682.435 644.583 675.819 641.173 c 0
 671.475 638.934 666.522 638.497 661.739 638.35 c 2
 648.261 638.231 l 2
 632.44 638.095 616.418 637.951 600.87 634.783 c 1
 597.084 618.346 592.84 602.014 588.696 585.652 c 2
 569.076 506.956 l 1
 509.402 268.261 l 1
 485.924 174.348 l 2
 481.526 156.755 477.796 138.794 471.55 121.739 c 0
 465.775 105.969 457.708 91.0725 447.986 77.3912 c 0
 441.16 67.7851 433.469 58.8473 425.134 50.5217 c 0
 374.348 -0.147472 301.53 -21.124 231.304 -22.174 c 0
 191.441 -22.6088 148.988 -15.6523 115.652 7.59514 c 0
 92.2813 23.8725 74.9261 47.9451 71.0056 76.5217 c 0
 68.0174 98.2608 71.823 122.026 82.5413 141.304 c 0
 99.4395 171.697 134.24 191.156 169.13 187.268 c 0
 176.015 186.501 182.81 184.76 189.128 181.9 c 0
 194.064 179.666 198.673 176.737 202.786 173.21 c 0
 206.433 170.079 209.697 166.494 212.431 162.539 c 0
 225.316 143.897 223.903 119.501 216.178 99.1304 c 0
 208.355 78.4995 192.609 60.9895 173.043 50.8665 c 0
 165.578 46.9565 157.726 44.5013 149.565 42.6086 c 1
 158.935 34.3443 168.696 27.236 180.435 22.5743 c 0
 189.565 18.9069 199.322 16.6173 209.13 15.456 c 0
 218.231 14.3478 227.391 14.1782 236.522 15.6447 c 0
 276.029 22.0339 306.07 54.1452 324.348 87.826 c 0
 327.54 93.6286 330.397 99.5652 333.016 105.652 c 0
 344.089 131.275 349.941 158.676 356.685 185.652 c 2
 384.076 295.217 l 1
 439.293 516.087 l 2
 449.256 555.936 459.417 595.742 469.13 635.652 c 1
EndSplineSet
Fore
70 91 m 0
 70 148 112 188 160 188 c 0
 196 188 222 165 222 130 c 0
 222 99 202 55 150 43 c 1
 169 26 194 15 221 15 c 0
 329 15 355 180 357 186 c 2
 469 636 l 1
 430 638 390 638 366 638 c 0
 352 638 336 639 336 658 c 0
 336 672 341 686 365 686 c 0
 369 686 459 683 506 683 c 2
 560 683 l 2
 623 683 655 686 665 686 c 0
 677 686 689 682 689 666 c 0
 689 655 684 638 662 638 c 2
 648 638 l 2
 632 638 616 638 601 635 c 1
 486 174 l 2
 474 128 467 92 425 51 c 0
 371 -3 292 -22 228 -22 c 0
 131 -22 70 25 70 91 c 0
EndSplineSet
EndChar
StartChar: K
Encoding: 75 75 19
Width: 895
Flags: MW
TeX: 0 0 0 0
HStem: 0 48<70.8425 174.695 300.759 412 747.809 821.875> 638 48<235.378 341.343 463 572.719 873.4 960.653>
VStem: 180 279<52 616>
Back
325.739 636.087 m 1
 325.739 636.087 l 1
 307.478 637.623 289.217 638.141 270.956 638.243 c 2
 253.13 638.261 l 2
 248.517 638.261 243.768 638.261 239.217 639.408 c 0
 237.043 639.957 234.998 640.807 233.104 642.012 c 0
 222.003 649.076 223.031 664.217 228.698 674.533 c 0
 229.585 676.087 230.65 677.67 231.905 679.023 c 0
 238.031 685.627 246.885 686.014 255.304 685.842 c 2
 298.348 684.631 l 2
 366.884 682.815 435.458 683.249 504 684.348 c 2
 539.652 685.217 l 2
 546.609 685.463 553.954 686.2 560.936 685.217 c 0
 569.599 684.077 576.846 678.043 577.913 669.097 c 0
 578.348 665.627 577.913 662.085 577.134 658.696 c 0
 575.128 650.265 570.406 642.523 561.745 639.79 c 0
 557.712 638.516 553.413 638.378 549.217 638.261 c 2
 534.869 638.26 l 2
 520.087 638.249 505.281 637.994 490.521 637.281 c 2
 484 636.911 l 2
 476.452 636.398 467.226 636.087 462.948 628.794 c 0
 460.695 624.942 459.652 620.362 458.629 616.081 c 2
 453.945 597.391 l 1
 438.293 534.783 l 2
 421.339 466.957 404 399.226 387.478 331.304 c 1
 497.043 414.348 l 1
 689.217 559.824 l 1
 782.261 630.435 l 1
 771.67 633.447 761.056 635.864 750.087 636.957 c 0
 741.914 637.826 733.4 637.391 725.304 639.056 c 0
 722.581 639.565 719.904 640.561 717.478 642.095 c 0
 716.139 642.998 714.863 644.084 713.757 645.325 c 0
 708.158 651.603 708.46 660.188 710.688 667.806 c 0
 712.016 672.35 714.143 676.75 717.638 680 c 0
 720.737 682.927 724.649 684.627 728.783 685.327 c 0
 736.034 686.522 743.674 685.652 750.956 685.463 c 2
 786.174 684.43 l 2
 824.409 683.564 862.696 682.879 900.957 683.564 c 0
 910.957 683.744 920.957 684.122 930.957 684.592 c 0
 937.026 684.877 943.13 685.42 949.214 685.303 c 0
 957.294 685.149 965.06 681.987 968.474 674.154 c 0
 970.362 669.821 970.286 665.006 969.431 660.435 c 0
 967.837 651.93 963.565 643.58 955.153 640.272 c 0
 950.52 638.466 945.428 638.261 940.522 638.118 c 0
 934.429 637.826 928.339 637.583 922.261 637.066 c 0
 903.81 635.499 885.08 632.094 867.913 624.964 c 0
 860.473 621.875 853.528 617.905 846.609 613.808 c 0
 841.5 610.783 836.316 607.826 831.391 604.552 c 0
 824.374 599.817 817.705 594.554 810.957 589.448 c 2
 766.609 555.9 l 1
 652.261 469.367 l 2
 630.031 452.539 608.093 435.197 585.305 419.13 c 1
 599.87 387.978 613.271 356.246 627.152 324.783 c 2
 703.314 152.174 l 1
 727.868 96.5217 l 2
 732.261 86.5217 736.47 76.4135 741.188 66.5217 c 0
 743.428 61.8891 746.038 57.193 750.377 54.1482 c 0
 755.444 50.5926 761.906 49.7387 767.913 49.123 c 0
 778.165 48.0726 788.49 47.9895 798.783 47.8 c 0
 807.264 47.6435 816.174 46.7878 821.66 39.4069 c 0
 822.643 38.0791 823.442 36.6178 824 35.0721 c 0
 824.744 33.1665 825.118 31.1482 825.213 29.1161 c 0
 825.305 25.6161 824.775 22.0782 823.846 18.6956 c 0
 823.041 15.7978 821.932 12.9361 820.325 10.3639 c 0
 819.347 8.79954 818.186 7.3491 816.842 6.08302 c 0
 809.727 -0.620897 799.572 0.109538 790.522 0.434755 c 2
 772.261 1.19519 l 2
 710.826 3.39084 649.363 2.72432 587.913 1.72171 c 2
 540.522 0.434755 l 2
 531.999 0.338233 522.878 0.752581 517.221 8.11302 c 0
 513.221 13.3156 512.91 19.8708 514.176 26.0835 c 0
 515.739 33.8191 519.436 41.5035 526.844 45.1156 c 0
 531.493 47.3821 536.746 47.6548 541.826 47.7852 c 2
 556.174 48.1482 l 2
 571.32 48.6956 585.927 50.6135 600.522 54.7826 c 1
 571.807 119.565 l 1
 526.922 221.304 l 1
 496.039 291.304 l 1
 476.609 336.087 l 1
 452.415 318.829 429 300.424 405.304 282.491 c 2
 384.435 266.702 l 2
 379.301 262.763 373.767 258.791 370.05 253.383 c 0
 365.401 246.618 364 237.82 362.098 230 c 2
 352.098 190 l 2
 340.431 143.33 328.995 96.597 317.044 50 c 1
 336.406 48.3891 355.878 47.8261 375.304 47.8261 c 2
 392.696 47.7778 l 2
 397.616 47.6896 402.696 47.4835 407.295 45.4905 c 0
 408.954 44.7683 410.515 43.8261 411.911 42.6087 c 0
 419.089 36.7526 419.51 27.5322 417.239 19.1305 c 0
 415.175 11.5205 410.748 4.58002 403.022 1.81741 c 0
 398.207 0.0952391 392.959 0.148717 387.913 0.245674 c 2
 370.522 0.761761 l 2
 349.652 1.38393 328.783 2.02089 307.913 2.17393 c 2
 284 2.58567 l 2
 241.544 2.87959 199.058 2.81002 156.609 2.09611 c 0
 140.376 1.8235 124.141 1.41785 107.913 0.950022 c 2
 92.6956 0.517848 l 2
 88.5196 0.428283 84.2374 0.303935 80.0869 1.1735 c 0
 73.86 2.49915 68.4404 6.6822 66.1491 12.7544 c 0
 64.7513 16.4574 64.7152 20.4348 65.3043 24.3465 c 0
 66.4017 31.5596 69.3061 39.1231 75.4548 43.4783 c 0
 80.6265 47.1505 86.9909 47.6413 93.1304 47.7692 c 2
 110.087 47.8261 l 2
 120.233 47.8261 130.379 48.1074 140.522 48.3692 c 0
 153.826 48.6957 167.043 49.2922 180.087 52.1739 c 1
 194.598 110.87 l 1
 219.217 209.565 l 1
 293.837 507.826 l 1
 313.565 586.957 l 1
 325.739 636.087 l 1
EndSplineSet
Fore
65 20 m 0
 65 32 70 48 93 48 c 2
 110 48 l 2
 145 48 167 49 180 52 c 1
 326 636 l 1
 307 638 289 638 271 638 c 2
 252 638 l 2
 236 638 225 643 225 659 c 0
 225 671 230 686 253 686 c 0
 267 686 311 683 397 683 c 0
 513 683 538 686 551 686 c 0
 566 686 578 682 578 665 c 0
 578 653 572 638 549 638 c 2
 535 638 l 2
 463 638 463 636 459 616 c 2
 387 331 l 1
 782 630 l 1
 738 643 710 630 710 659 c 0
 710 672 715 686 738 686 c 0
 751 686 789 683 866 683 c 0
 905 683 934 685 947 685 c 0
 958 685 970 682 970 666 c 0
 970 640 949 638 941 638 c 0
 889 638 858 626 811 589 c 2
 811 589 608 435 585 419 c 1
 618 349 741 67 741 67 c 2
 750 48 764 48 791 48 c 0
 809 48 825 47 825 28 c 0
 825 16 820 0 798 0 c 0
 786 0 751 3 681 3 c 0
 597 3 555 0 541 0 c 0
 529 0 513 2 513 19 c 0
 513 61 555 42 601 55 c 1
 477 336 l 1
 369 255 l 1
 317 50 l 1
 336 48 356 48 375 48 c 2
 394 48 l 2
 412 48 419 38 419 27 c 0
 419 17 414 0 392 0 c 0
 376 0 331 3 239 3 c 0
 122 3 105 0 90 0 c 0
 79 0 65 4 65 20 c 0
EndSplineSet
EndChar
StartChar: L
Encoding: 76 76 20
Width: 698
Flags: MW
TeX: 0 0 0 0
HStem: 0 48<72.8758 173.785 305.931 532> 638 48<230 341.241 474.274 594.722>
VStem: 179 283<52 633>
Back
324.739 636.087 m 1
 324.739 636.087 l 1
 305.609 637.696 286.478 638.202 267.348 638.253 c 2
 249.956 638.261 l 2
 245.042 638.371 239.936 638.5 235.318 640.374 c 0
 233.636 641.057 232.047 641.96 230.616 643.044 c 0
 222.713 649.252 222.476 659.347 225.155 668.234 c 0
 226.913 674.087 230.14 679.565 235.553 682.712 c 0
 240.391 685.548 246.171 685.899 251.696 685.878 c 2
 266.478 685.487 l 2
 287.916 684.783 309.378 684.118 330.826 683.913 c 0
 387.055 683.443 443.293 683.044 499.522 683.913 c 2
 556.043 685.142 l 1
 573.87 685.588 l 2
 578.333 685.652 582.894 685.9 587.324 685.217 c 0
 593.87 684.231 599.875 680.405 602.565 674.141 c 0
 604.304 670.087 604.41 665.604 603.69 661.304 c 0
 602.469 654.014 599.343 646.503 592.985 642.272 c 0
 586.478 637.96 578.217 638.261 570.826 638.261 c 0
 558.363 638.224 545.896 638.388 533.435 638.082 c 0
 509.522 637.494 485.174 638.261 461.696 633.478 c 1
 452.565 596.087 l 1
 438.924 541.304 l 1
 397.185 374.348 l 1
 344.467 163.478 l 1
 315.609 48.6957 l 1
 335.863 47.3749 356.192 47.8262 376.478 47.8262 c 0
 388.64 47.8262 400.826 47.5227 413 48.2488 c 0
 423.093 48.8518 433.125 50.2301 443 52.4075 c 0
 486.703 62.0444 526.043 86.5027 555.568 120 c 0
 583 151.247 601.485 189.05 616.873 227.391 c 2
 626.612 252.605 l 2
 629.485 260 632.872 267.708 640.218 271.643 c 0
 647.147 275.354 656.237 275.117 663.865 274.467 c 0
 666.784 274.218 669.7 273.708 672.425 272.6 c 0
 674.392 271.739 676.236 270.704 677.783 269.327 c 0
 679.087 268.236 680.27 266.957 681.212 265.582 c 0
 687.632 256.08 682.13 244.315 678.652 234.783 c 2
 675.79 226.957 l 1
 672.124 216.957 l 1
 614.095 58.6957 l 2
 609.63 46.5213 605.296 34.2887 600.663 22.1739 c 0
 597.721 14.4835 594.118 6.42046 586.276 2.60872 c 0
 581.09 0.152637 575.16 0.0878543 569.522 2.82079e-05 c 2
 548.652 2.82079e-05 l 1
 468.652 2.82079e-05 l 1
 181.261 2.82079e-05 l 1
 121.261 2.82079e-05 l 2
 110.255 2.82079e-05 99.2195 -0.233015 88.2174 0.0835065 c 0
 79.8013 0.32568 71.1661 2.1322 66.4782 9.93916 c 0
 65.6935 11.3044 65.0569 12.8552 64.6309 14.4287 c 0
 64.1013 16.3857 63.8695 18.4179 63.9561 20.4348 c 0
 64.2056 31.2213 69.4826 43.0435 80.4787 46.3796 c 0
 85.1739 47.8044 90.28 47.7718 95.1739 47.8083 c 2
 113.435 47.8261 l 2
 122.997 47.8261 132.565 48.1474 142.13 48.4426 c 0
 154.578 48.8279 166.897 49.4779 179.087 52.1739 c 1
 193.598 110.87 l 1
 218.217 209.565 l 1
 292.837 507.826 l 1
 312.565 586.957 l 1
 324.739 636.087 l 1
EndSplineSet
Fore
64 20 m 0
 64 46 84 48 92 48 c 2
 113 48 l 2
 146 48 166 49 179 52 c 1
 325 636 l 1
 306 638 286 638 267 638 c 2
 249 638 l 2
 230 638 223 649 223 659 c 0
 223 670 229 686 251 686 c 0
 286 686 286 683 427 683 c 0
 518 683 564 686 579 686 c 0
 598 686 604 676 604 666 c 0
 604 640 583 638 574 638 c 2
 554 638 l 2
 508 638 480 637 462 633 c 1
 316 49 l 1
 328 48 340 48 352 48 c 2
 390 48 l 2
 532 48 586 145 627 253 c 0
 633 269 640 275 656 275 c 0
 671 275 684 271 684 255 c 0
 684 250 680 241 674 223 c 2
 601 22 l 2
 594 4 588 0 570 0 c 2
 88 0 l 2
 68 0 64 12 64 20 c 0
EndSplineSet
EndChar
StartChar: N
Encoding: 78 78 21
Width: 896
Flags: MW
TeX: 0 0 0 0
HStem: 0 48<72.3989 207.165 256.529 338.663> 637 49<234.293 341.343 729.472 808.471 854 991.722>
VStem: 186 189<78 583> 665 211<21 596>
Back
325.609 636.957 m 1
 325.609 636.957 l 1
 307.495 637.391 289.385 638.211 271.261 638.255 c 2
 252.565 638.261 l 2
 247.783 638.261 242.912 638.256 238.218 639.47 c 0
 236.131 640 234.058 640.87 232.131 642.106 c 0
 220.826 649.423 222.382 665.565 228.791 675.729 c 0
 229.778 677.295 230.948 678.696 232.301 680 c 0
 238.754 686.064 247.741 686.03 256.044 686.074 c 2
 282.565 686.087 l 1
 415.609 686.087 l 1
 446.044 686.069 l 2
 453.706 686.013 461.679 685.868 467.994 680.87 c 0
 473.533 676.522 476.844 670 480.048 663.91 c 2
 493.309 638.261 l 1
 542.131 543.478 l 1
 716.044 206.522 l 1
 730.772 266.522 l 1
 755.772 366.522 l 1
 821.261 628.261 l 1
 815.831 630.249 810.374 632.078 804.734 633.385 c 0
 792.911 636.087 780.752 637.158 768.652 637.72 c 0
 762.858 637.989 757.061 638.156 751.261 638.237 c 0
 746.364 638.261 741.261 638.195 736.478 639.363 c 0
 730.515 640.831 725.291 644.783 722.965 650.632 c 0
 721.227 655.003 721.405 659.807 722.322 664.344 c 0
 724.145 673.361 728.98 681.899 738.298 684.639 c 0
 746.044 686.937 754.985 685.652 763 685.38 c 0
 776.765 684.783 790.533 684.348 804.304 684.05 c 0
 848.768 682.973 893.323 683.043 937.783 684.284 c 2
 963.87 685.108 l 2
 969.499 685.311 975.174 685.74 980.82 685.43 c 0
 988.408 685.014 995.591 681.739 998.935 674.545 c 0
 1001.06 669.978 1000.95 664.783 999.957 660 c 0
 998.393 652.174 994.58 644.519 987.135 640.87 c 0
 985.136 639.954 982.99 639.34 980.806 638.965 c 0
 976.804 638.261 972.7 638.261 968.652 638.244 c 2
 955.174 637.911 l 2
 940.303 637.365 925.414 636.239 910.826 633.164 c 0
 901.775 631.257 890.638 629.005 884.65 621.268 c 0
 882.096 617.967 880.769 613.913 879.653 609.978 c 0
 874.565 591.877 870.391 573.458 865.88 555.217 c 2
 839.793 450.87 l 1
 761.424 137.391 l 1
 738.38 45.2174 l 1
 733 23.9131 l 2
 731.261 17.3913 729.303 10.7079 724.237 6.00961 c 0
 717.734 4.20809e-05 708.652 4.20809e-05 700.391 4.20809e-05 c 0
 696.043 4.20809e-05 691.655 4.20809e-05 687.348 0.667433 c 0
 685.039 1.04874 682.75 1.69482 680.621 2.72961 c 0
 673 6.40482 668.949 14.1961 665.174 21.3044 c 2
 657.305 36.5218 l 1
 602.13 143.478 l 1
 452.747 433.044 l 1
 404.079 527.391 l 2
 394.483 545.989 385.47 565.068 374.739 583.044 c 1
 362.076 531.304 l 1
 340.826 446.522 l 1
 277.511 193.044 l 1
 256.641 109.565 l 1
 243.87 57.8261 l 1
 249.014 55.914 254.185 54.15 259.522 52.874 c 0
 271.622 49.9861 284.086 48.9257 296.478 48.3631 c 0
 302.418 48.0931 308.36 47.9292 314.304 47.8261 c 0
 319.202 47.7709 324.263 47.8261 329.023 46.5218 c 0
 331.181 45.9427 333.253 45.037 335.111 43.7822 c 0
 342.716 38.6492 344.303 29.7822 342.488 21.3044 c 0
 340.581 12.4005 335.609 4.05353 326.412 1.40005 c 0
 318.583 -0.853863 309.715 0.40179 301.696 0.721355 c 0
 287.931 1.26962 274.162 1.70396 260.391 2.03744 c 0
 216.218 3.04353 171.952 3.00918 127.783 1.8144 c 2
 102.565 1.03701 l 2
 97.0678 0.838312 91.5491 0.434833 86.0435 0.577442 c 0
 78.0726 0.717442 70.2109 3.23309 66.3074 10.7653 c 0
 63.8465 15.5135 63.8696 20.9557 64.9305 26.0831 c 0
 66.4613 33.6557 70.0478 41.2087 77.1922 44.9048 c 0
 79.1626 45.924 81.2609 46.5218 83.4348 46.9566 c 0
 91.6304 48.5783 100.37 47.8261 108.652 48.134 c 0
 123.372 48.6627 138.098 49.7035 152.565 52.5966 c 0
 162.034 54.4901 174.139 56.7018 180.357 64.8601 c 0
 183.323 68.6957 184.621 73.6179 185.85 78.2609 c 0
 190.391 95.5996 194.577 113.044 198.924 130.435 c 2
 223.707 229.565 l 1
 289.957 494.783 l 2
 301.86 542.174 313.435 589.565 325.609 636.957 c 1
EndSplineSet
Fore
64 20 m 0
 64 48 87 48 97 48 c 0
 181.742 48 183.478 67.0723 186 78 c 2
 326 637 l 1
 307 637 289 638 271 638 c 2
 251 638 l 2
 236 638 224 642 224 659 c 0
 224 684 245 686 253 686 c 2
 446 686 l 2
 465 686 470 683 480 664 c 2
 716 207 l 1
 821 628 l 1
 802 636 777 638 751 638 c 0
 738 638 722 641 722 658 c 0
 722 686 743 686 754 686 c 0
 765 686 799 683 867 683 c 0
 912 683 944 685 964 685 c 0
 991 685 1001 682 1001 666 c 0
 1001 640 980 638 971 638 c 0
 881 638 883 624 876 596 c 2
 733 24 l 2
 727 3 721 0 699 0 c 0
 679 0 675 3 665 21 c 2
 404 527 l 2
 394 546 385 565 375 583 c 1
 244 58 l 1
 263 50 288 48 314 48 c 0
 330 48 343 45 343 27 c 0
 343 17 339 0 315 0 c 0
 302 0 274 3 198 3 c 0
 133 3 100 0 89 0 c 0
 76 0 64 4 64 20 c 0
EndSplineSet
EndChar
StartChar: Q
Encoding: 81 81 22
Width: 855
Flags: HMW
TeX: 0 0 0 0
HStem: -194 144<599 753> -22 41<400.882 474.2> 119 36<403.5 527> 667 41<542 666.8>
VStem: 159 130<102.8 275.7> 350 37<39.7828 88.4> 735 130<410.9 678.7>
Fore
159 226 m 0
 159 435 319 708 604 708 c 0
 715 708 865 658 865 457 c 0
 865 321 799 154 670 59 c 0
 641 38 609 21 576 7 c 1
 589 -28 602 -50 639 -50 c 0
 671 -50 711 -37 728 -10 c 0
 733.156 -1.74967 738 17 753 17 c 0
 761 17 769 11 769 1 c 0
 769 -36 710 -194 599 -194 c 0
 527 -194 509 -139 509 -78 c 0
 509 -57 511 -34 513 -12 c 1
 475 -19 454 -22 421 -22 c 0
 258 -22 159 71 159 226 c 0
289 186 m 0
 289 122 307 72 351 42 c 1
 351 42 350 48 350 50 c 0
 350 111 410 155 462 155 c 0
 521 155 545 109 559 64 c 1
 693 153 735 431 735 498 c 0
 735 637 650 667 594 667 c 0
 554 667 468 652 397 549 c 0
 325 444 289 255 289 186 c 0
387 52 m 0
 387 21 414 19 430 19 c 0
 464 19 490 27 516 38 c 1
 515 76 512 119 462 119 c 0
 417 119 387 80 387 52 c 0
EndSplineSet
EndChar
StartChar: R
Encoding: 82 82 23
Width: 859
Flags: MW
TeX: 0 0 0 0
HStem: 0 48<64.1 174.697 294.518 406> 325 36<389 572.1> 638 48<231 341.343 458 622.3>
VStem: 180 278<52 637> 539 143<28.4 124.6> 686 139<515.4 599>
Back
325.739 636.087 m 1
 325.739 636.087 l 1
 307.388 637.635 288.936 638.153 270.522 638.245 c 2
 252.696 638.261 l 2
 247.913 638.261 243.019 638.261 238.348 639.638 c 0
 236.399 640.226 234.435 641.091 232.696 642.261 c 0
 224.146 648.01 223.362 658.183 225.885 667.373 c 0
 227.01 671.469 228.753 675.476 231.595 678.681 c 0
 239.929 688.077 254.435 686.087 265.739 686.087 c 2
 349.652 686.087 l 1
 540.522 686.087 l 2
 559.062 686.087 577.639 686.417 596.174 685.91 c 0
 634.284 684.865 672.696 680.998 709.218 669.41 c 0
 739.408 659.82 769.462 644.627 791.261 621.178 c 0
 798.752 613.12 805.212 604.084 810.343 594.348 c 0
 814.35 586.743 817.478 578.696 819.849 570.435 c 0
 827.727 542.363 825.502 512.03 815.509 484.783 c 0
 809.168 467.494 799.807 451.46 788.5 436.957 c 0
 759.217 399.451 718.579 373.562 674.87 356.023 c 0
 657.662 349.118 639.941 344.175 622.261 338.696 c 1
 635.473 333.195 647.913 326.32 659.214 317.391 c 0
 667.702 310.75 675.435 303.021 681.826 294.346 c 0
 695.739 275.652 702.696 252.773 702.488 229.565 c 0
 702.336 214.68 699.401 199.883 697.12 185.217 c 2
 687.855 125.217 l 2
 684.435 102.786 680.957 79.6935 682.773 56.9565 c 0
 683.64 45.8987 685.85 33.913 693.498 25.4239 c 0
 703.565 14.1613 721.239 12.4091 734.87 17.4987 c 0
 742.871 20.4348 749.863 25.6522 755.931 31.6339 c 0
 769.392 44.7826 778.733 61.7391 785.646 79.1304 c 0
 787.694 84.2735 789.446 89.5143 791.149 94.7795 c 0
 792.838 99.9995 794.576 105.401 798.215 109.565 c 0
 804.511 116.957 814.139 117.464 823.131 117.306 c 0
 827.768 117.225 832.555 116.916 836.863 115.046 c 0
 838.664 114.264 840.35 113.223 841.826 111.94 c 0
 842.988 110.946 844 109.811 844.87 108.566 c 0
 851.177 99.5652 847.004 87.9726 843.666 78.6956 c 0
 833.217 49.6587 814.762 23.0435 790.521 3.91303 c 0
 775.681 -7.8348 758.319 -16.6161 739.652 -20.1952 c 0
 729.189 -22.1739 718.528 -22.3004 707.913 -22.0004 c 0
 697.897 -21.7391 687.882 -21.1287 677.913 -20.1109 c 0
 651.826 -17.4539 625.661 -12.22 601.826 -1.1261 c 0
 590.957 3.9026 580.844 10.2904 571.826 18.1826 c 0
 565.304 23.913 559.468 30.5443 554.619 37.8261 c 0
 540.485 59.0565 536.817 85.0374 539.761 110 c 0
 541.391 124.153 545.28 137.945 548.728 151.739 c 2
 559.924 196.522 l 2
 562.904 208.444 566.309 220.384 567.806 232.609 c 0
 570.361 253.473 567.478 275.652 555.661 293.467 c 0
 552.261 298.472 548.328 303.043 543.826 307.04 c 0
 533.565 316.087 520.914 321.586 507.478 323.592 c 0
 496.292 325.217 484.84 324.783 473.565 324.783 c 2
 380.087 324.783 l 1
 345.902 187.826 l 1
 311.391 50 l 1
 330.754 48.3896 350.226 47.8261 369.652 47.8261 c 2
 387.044 47.7778 l 2
 391.964 47.6896 397.044 47.4835 401.643 45.4904 c 0
 403.301 44.7683 404.863 43.8261 406.259 42.6087 c 0
 413.437 36.7526 413.857 27.5322 411.587 19.1304 c 0
 409.523 11.5204 405.096 4.58 397.37 1.81739 c 0
 392.69 0.143913 387.602 0.153043 382.696 0.238695 c 2
 365.304 0.760869 l 2
 344.87 1.30435 324.435 2.01391 304 2.17391 c 2
 280.087 2.58565 l 2
 238.5 2.87348 196.885 2.8 155.304 2.09652 c 0
 139.361 1.82652 123.417 1.41 107.478 0.95 c 2
 92.6957 0.526521 l 2
 88.5196 0.433043 84.2378 0.304782 80.087 1.17391 c 0
 73.86 2.4987 68.4404 6.68261 66.1491 12.7543 c 0
 64.6983 16.5978 64.7157 20.7739 65.3044 24.7809 c 0
 66.5513 32.0113 69.5261 39.5065 75.8161 43.7417 c 0
 80.9326 47.1874 87.1422 47.6448 93.1305 47.7691 c 2
 110.522 47.8261 l 2
 120.667 47.8261 130.815 48.1104 140.957 48.3804 c 0
 154.118 48.6956 167.198 49.323 180.087 52.1739 c 1
 194.598 110.87 l 1
 219.217 209.565 l 1
 293.728 507.391 l 1
 313.511 586.522 l 1
 325.739 636.087 l 1
389.218 361.304 m 1
 389.218 361.304 l 1
 466.609 361.304 l 2
 484.435 361.304 502.261 361.252 520.087 362.744 c 0
 548.528 365.128 576.964 371.304 602.261 384.979 c 0
 608.921 388.565 615.305 392.601 621.384 397.185 c 0
 633.379 406.32 643.205 417.826 650.775 430.87 c 0
 658.348 443.913 663.757 458.172 668.129 472.609 c 0
 670.957 482.094 673.499 491.688 675.889 501.304 c 0
 680.769 520.87 685.602 540.964 685.64 561.304 c 0
 685.667 576.087 682.696 590.7 673.246 602.534 c 0
 668.67 608.258 663.104 613.198 657.038 617.292 c 0
 643.679 626.308 627.998 631.186 612.261 634.032 c 0
 588.326 638.361 563.887 638.261 539.652 638.261 c 0
 512.452 638.261 485.002 639.373 457.913 636.522 c 1
 389.218 361.304 l 1
EndSplineSet
Fore
65 20 m 0
 65 33 71 48 94 48 c 2
 111 48 l 2
 145 48 167 49 180 52 c 1
 326 636 l 1
 307 638 289 638 271 638 c 2
 251 638 l 2
 231 638 225 649 225 659 c 0
 225 672 231 686 255 686 c 2
 565 686 l 2
 653 686 790 675 820 570 c 0
 823 559 825 547 825 535 c 0
 825 495.8 807.301 390.472 622 339 c 1
 666 321 702 285 702 231 c 0
 702 201 682 112 682 70 c 0
 682 38 690 15 720 15 c 0
 752 15 777 50 791 95 c 0
 797 112 802 117 823 117 c 0
 845 117 848 105 848 98 c 0
 848 78 809 -22 716 -22 c 0
 636 -22 539 1 539 94 c 0
 539 136 569 209 569 246 c 0
 569 283 552 325 485 325 c 2
 380 325 l 1
 311 50 l 1
 331 48 350 48 370 48 c 2
 388 48 l 2
 406 48 413 38 413 27 c 0
 413 16 408 0 385 0 c 0
 371 0 339 3 236 3 c 0
 131 3 104 0 91 0 c 0
 68 0 65 12 65 20 c 0
389 361 m 1
 475 361 l 2
 636 361 657 427 676 501 c 0
 681 521 686 541 686 562 c 0
 686 636 604 638 543 638 c 2
 504 638 l 2
 488 638 473 638 458 637 c 1
 389 361 l 1
EndSplineSet
EndChar
StartChar: afii10036
Encoding: 1058 1058 24
Width: 796
Flags: MW
TeX: 0 0 0 0
HStem: 0 48<190.278 349 455.505 614.302> 638 48<293.1 486.438 625 763.9>
VStem: 349 276<21 83>
Back
487.391 637.391 m 1
 487.391 637.391 l 2
 472.758 638.345 458.135 638.261 443.478 638.261 c 0
 426.18 638.261 408.9 638.342 391.739 635.842 c 0
 356.8 630.752 322.793 615.978 299.957 588.249 c 0
 290.435 576.743 282.946 563.713 276.258 550.435 c 0
 267.826 533.806 260.785 516.522 254.236 499.13 c 0
 250.658 489.565 247.267 480 243.882 470.435 c 0
 241.601 463.913 239.505 456.932 234.921 451.668 c 0
 229.13 445.061 220.869 444.031 212.608 443.913 c 0
 209.13 443.913 205.625 444.004 202.174 444.541 c 0
 199.709 444.929 197.27 445.613 195.028 446.762 c 0
 193.262 447.667 191.634 448.841 190.229 450.245 c 0
 189.13 451.304 188.202 452.535 187.391 453.848 c 0
 182.311 462.476 186.396 472.609 189.335 481.304 c 2
 191.425 487.391 l 1
 194.423 496.087 l 1
 241.814 633.478 l 2
 245.364 643.77 248.8 654.112 252.522 664.343 c 0
 255.209 671.732 258.565 679.374 265.92 683.166 c 0
 271.688 686.087 278.458 686.032 284.782 686.072 c 2
 312.608 686.087 l 1
 417.826 686.087 l 1
 721.739 686.087 l 1
 813.478 686.087 l 1
 840.435 686.083 l 2
 846.438 686.069 852.817 686.389 858.611 684.558 c 0
 860.613 683.913 862.524 683.01 864.239 681.739 c 0
 865.487 680.87 866.628 679.876 867.627 678.696 c 0
 874.348 670.87 872.101 660.142 870.68 650.87 c 2
 869.565 643.913 l 1
 868.127 634.348 l 1
 866.087 621.304 l 1
 848.232 506.087 l 1
 843.31 474.348 l 2
 842.174 467.465 841.496 459.916 837.708 453.889 c 0
 832.51 445.619 823.398 444.073 814.348 443.913 c 0
 811.021 443.913 807.662 443.986 804.348 444.348 c 0
 801.879 444.742 799.426 445.328 797.144 446.37 c 0
 795.484 447.128 793.913 448.113 792.546 449.304 c 0
 782.992 457.532 786.221 470.87 787.826 481.739 c 0
 791.528 506.609 795.097 531.739 795.148 556.956 c 0
 795.175 570.521 794.526 585.149 789.243 597.825 c 0
 781.513 616.373 762.925 627.294 744.348 632.518 c 0
 724.1 638.213 703.033 638.261 682.174 638.261 c 0
 662.992 638.261 643.894 638.417 624.783 636.522 c 1
 610.272 577.826 l 1
 585.489 478.696 l 1
 510.598 179.13 l 1
 490.706 99.5652 l 1
 478.696 50.8695 l 1
 499.086 48.9235 519.53 48.4743 540 48.2156 c 2
 563.478 47.8261 l 1
 590.435 47.8248 l 2
 596.459 47.8208 602.729 48.163 608.664 46.953 c 0
 610.989 46.4787 613.253 45.6521 615.315 44.5139 c 0
 616.768 43.6778 618.113 42.6087 619.297 41.4661 c 0
 626.791 33.913 625.38 22.0121 621.165 13.1691 c 0
 620.297 11.3043 619.234 9.5652 617.946 8.05433 c 0
 611.66 0.434761 602.174 -2.2009e-05 593.043 0.207804 c 2
 535.217 1.48302 l 2
 492.764 2.53867 450.29 2.60867 407.826 2.60867 c 0
 382.609 2.60867 357.388 2.79085 332.174 2.57867 c 2
 273.913 1.73737 l 2
 257.826 1.60128 241.736 1.13433 225.652 0.803022 c 0
 217.168 0.628239 208.478 -0.162631 200 0.599543 c 0
 196.953 0.869543 193.913 1.54259 191.174 2.95476 c 0
 185.057 6.08693 181.394 12.3261 181.225 19.1304 c 0
 180.947 30.3035 186.522 43.0182 197.904 46.3974 c 0
 203.043 47.9282 208.598 47.7917 213.913 47.8156 c 2
 235.652 47.8261 l 2
 258.685 47.8261 281.739 48.0904 304.783 49.0526 c 0
 311.735 49.3435 318.696 49.65 325.633 50.4117 c 0
 330.601 50.9582 336.264 51.6861 339.803 55.6108 c 0
 340.962 56.8965 341.819 58.4182 342.506 59.9987 c 0
 345.643 67.21 346.957 75.44 348.859 83.0435 c 2
 359.076 123.913 l 1
 390.87 251.304 l 1
 453.641 502.174 l 2
 464.908 547.241 476.406 592.256 487.391 637.391 c 1
EndSplineSet
Fore
185 463 m 0
 185 465 190 481 197 502 c 2
 253 664 l 2
 260 684 267 686 285 686 c 2
 844 686 l 1
 860 686 872 682 872 664 c 0
 872 663 869 644 866 622 c 2
 843 474 l 2
 840 454 837 444 813 444 c 0
 797 444 786 449 786 466 c 0
 786 478 795 517 795 558 c 0
 795 633 745 638 682 638 c 2
 674 638 l 2
 658 638 641 638 625 637 c 1
 479 51 l 1
 507 48 534 48 563 48 c 2
 596 48 l 2
 609 48 625 46 625 27 c 0
 625 15 619 0 596 0 c 0
 577 0 521 3 408 3 c 2
 357 3 l 2
 307 3 212 0 207 0 c 0
 194 0 181 4 181 20 c 0
 181 46 202 48 211 48 c 2
 257 48 l 2
 349 48 340 49 349 83 c 2
 487 637 l 1
 475 638 463 638 450 638 c 2
 440 638 l 2
 327 638 294 610 244 470 c 0
 239 457 237 444 211 444 c 0
 192 444 185 452 185 463 c 0
EndSplineSet
EndChar
StartChar: afii10037
Encoding: 1059 1059 25
Width: 865
Flags: W
TeX: 0 0 0 0
HStem: -22 51<310.815 424.2> 638 48<230 318.451 460.165 540.182>
Back
499.87 114.348 m 1
 499.87 114.348 l 2
 461.029 222.609 421.351 330.595 382.043 438.696 c 2
 337.972 560 l 2
 330.497 580.557 323.348 601.304 315.48 621.691 c 0
 313.767 626.087 311.834 630.87 307.784 633.706 c 0
 302.646 637.229 295.415 637.142 289.434 637.391 c 0
 276.977 638.111 264.512 638.163 252.043 638.261 c 0
 243.348 638.368 233.973 638.882 228.13 646.338 c 0
 227.254 647.524 226.48 648.825 225.883 650.204 c 0
 225.087 651.943 224.652 653.796 224.47 655.652 c 0
 224.107 659.13 224.606 662.702 225.443 666.079 c 0
 226.21 669.13 227.261 672.174 228.917 674.966 c 0
 229.865 676.522 230.994 678.091 232.309 679.425 c 0
 239.405 686.626 249.684 685.994 259 685.652 c 2
 278.565 684.954 l 2
 343.183 682.777 407.845 683.217 472.478 684.326 c 2
 521.609 685.564 l 2
 530.292 685.769 539.648 685.652 545.661 678.388 c 0
 549.964 673.151 550.404 666.419 549.125 660 c 0
 547.525 651.98 543.607 644.056 535.756 640.614 c 0
 531.451 638.696 526.68 638.439 522.043 638.261 c 2
 507.261 638.139 l 2
 491.174 637.779 475.354 636.643 459.435 634.783 c 1
 550.103 382.609 l 1
 575.748 311.304 l 1
 591.609 266.522 l 1
 611.609 298.696 l 1
 639.435 344.348 l 1
 721.588 479.13 l 1
 778.547 572.609 l 1
 796.297 601.739 l 1
 811.174 627.826 l 1
 797.695 632.609 784.127 635.806 769.869 637.088 c 0
 764.372 637.583 758.861 637.826 753.348 638.098 c 0
 748.869 638.261 744.217 638.409 739.947 639.77 c 0
 734.217 641.56 729.435 645.755 727.52 651.432 c 0
 726.068 655.586 726.286 660.086 727.138 664.343 c 0
 728.902 673.164 733.532 681.621 742.579 684.497 c 0
 749.702 686.763 757.696 685.773 765.087 685.486 c 2
 800.304 684.315 l 2
 839.698 683.299 879.169 682.88 918.565 684.016 c 2
 952.043 685.335 l 2
 960.395 685.592 969 684.689 974.217 677.265 c 0
 977.621 672.431 978.021 666.522 977.006 660.87 c 0
 975.522 652.609 971.559 644.348 963.597 640.727 c 0
 959.3 638.696 954.522 638.454 949.869 638.249 c 2
 936.391 637.639 l 2
 921.071 636.705 904.789 634.783 890.739 628.186 c 0
 875.277 620.87 866.391 605.817 857.882 591.739 c 2
 821.007 530.87 l 1
 679.33 296.957 l 2
 643.469 237.775 608.565 177.539 566.826 122.174 c 0
 523.348 64.3478 469.566 9.68086 398.565 -11.7948 c 0
 383.133 -16.5217 367.229 -19.5652 351.174 -21.003 c 0
 327.495 -23.1617 303.716 -21.9183 281.609 -12.3987 c 0
 263.18 -4.46305 247.093 8.79391 236.162 25.6522 c 0
 220.936 49.1304 216.517 77.8261 220.851 105.217 c 0
 222.743 117.173 226.122 128.862 231.857 139.565 c 0
 247.067 167.954 277.533 187.21 309.87 187.738 c 0
 324.15 187.972 338.565 184.484 350.221 175.935 c 0
 354.11 173.043 357.63 169.712 360.629 165.929 c 0
 379.659 141.92 372.852 106.522 357.367 82.6087 c 0
 354.402 78.02 351 73.7187 347.243 69.7504 c 0
 337.783 59.7574 326.187 51.9078 313.348 46.9335 c 0
 307.981 44.7826 302.44 43.427 296.826 42.1739 c 1
 303.023 38.1991 309.319 34.5539 316.391 32.3678 c 0
 325.373 29.5652 334.871 29.0174 344.217 29.2891 c 0
 353.348 29.5557 362.577 30.5704 371.609 32.1739 c 0
 409.425 39.1304 444.904 57.5009 473.333 83.2526 c 0
 483.773 92.7096 492.997 103.223 501.609 114.348 c 1
 499.87 114.348 l 1
EndSplineSet
Fore
219 85 m 0
 219 151 265 188 311 188 c 0
 347 188 372 164 372 131 c 0
 372 100 351 53 297 42 c 1
 308 35 318 29 341 29 c 0
 405 29 462 64 500 113 c 1
 338 560 l 2
 322 605 316 623 310 632 c 0
 306 638 286 638 261 638 c 2
 252 638 l 2
 230 638 224 649 224 659 c 0
 224 667 228 686 252 686 c 0
 265 686 304 683 381 683 c 0
 468 683 511 686 525 686 c 0
 543 686 550 676 550 665 c 0
 550 640 528 638 520 638 c 2
 510 638 l 2
 500 638 484 638 459 635 c 1
 592 267 l 1
 811 628 l 1
 764 645 726 628 726 659 c 0
 726 669 731 686 754 686 c 0
 766 686 800 683 869 683 c 0
 916 683 941 685 954 685 c 0
 967 685 977 682 977 666 c 0
 977 625 931 646 891 628 c 0
 875 621 866 606 858 592 c 2
 679 297 l 2
 599 165 502 -22 332 -22 c 0
 262 -22 219 25 219 85 c 0
EndSplineSet
EndChar
StartChar: U
Encoding: 85 85 26
Width: 881
Flags: W
TeX: 0 0 0 0
HStem: -22 48<390.8 518.862> 638 48<230 341.482 454 576.4 709 792.743 831.2 980.667>
VStem: 216 128<21.1 187.5>
Back
324.696 636.087 m 1
 324.696 636.087 l 1
 305.335 637.721 285.86 638.215 266.435 638.256 c 2
 249.043 638.261 l 2
 244.114 638.407 239.004 638.637 234.448 640.717 c 0
 232.928 641.412 231.496 642.295 230.204 643.355 c 0
 223.123 649.13 222.505 658.186 224.631 666.509 c 0
 226.688 674.564 231.312 681.874 239.579 684.509 c 0
 244.019 685.924 248.778 685.933 253.391 685.858 c 2
 268.609 685.407 l 1
 320.783 684.104 l 2
 347.009 683.446 373.245 683.478 399.478 683.478 c 0
 428.174 683.478 456.869 683.478 485.565 683.998 c 2
 549.043 685.562 l 2
 557.209 685.75 566 685.757 572.086 679.372 c 0
 573.124 678.261 574.024 677.053 574.696 675.735 c 0
 577.447 670.87 577.442 665.296 576.365 660 c 0
 574.787 652.174 571.032 644.551 563.602 640.87 c 0
 561.739 640 559.745 639.433 557.713 639.05 c 0
 553.723 638.261 549.611 638.261 545.565 638.261 c 2
 530.783 638.256 l 2
 516.435 638.226 502.058 637.942 487.739 637.194 c 0
 482.957 636.946 478.174 636.74 473.49 635.897 c 0
 470.048 635.217 466.587 634.171 464.061 631.636 c 0
 461.91 629.478 460.685 626.613 459.738 623.765 c 0
 458.1 618.84 456.987 613.726 455.728 608.696 c 2
 449.859 585.217 l 1
 431.815 513.043 l 1
 377.576 296.087 l 2
 369.184 262.519 360.133 229.035 352.797 195.217 c 0
 346.608 166.696 341.421 136.522 345.702 107.391 c 0
 347.11 97.7948 349.737 88.3443 353.826 79.5652 c 0
 356.288 74.51 359.197 69.7048 362.522 65.2174 c 0
 381.481 40.3856 412.39 29.3948 442.522 26.5217 c 0
 458.862 25.0448 475.378 25.7565 491.652 27.7235 c 0
 545.204 34.1948 596.078 57.6226 634.104 96.1726 c 0
 663.095 125.564 683.751 162.111 697.446 200.87 c 0
 703.328 217.515 707.538 234.631 711.815 251.739 c 2
 725.402 306.087 l 1
 777.739 515.652 l 2
 787.178 553.191 796.387 590.78 806 628.261 c 1
 800.57 630.249 795.113 632.078 789.473 633.385 c 0
 777.507 636.087 765.13 637.195 752.957 637.743 c 0
 746.87 638.015 740.783 638.166 734.696 638.257 c 0
 729.653 638.261 724.407 638.261 719.569 639.902 c 0
 713.926 641.739 709.264 646.087 707.424 651.847 c 0
 706.076 656.031 706.374 660.534 707.27 664.777 c 0
 709.136 673.616 713.908 681.931 723.044 684.632 c 0
 730.783 686.94 739.728 685.652 747.739 685.38 c 0
 761.214 684.783 774.693 684.348 788.174 684.072 c 0
 832.046 682.956 876 682.999 919.913 684.213 c 2
 960.347 685.489 l 2
 968.54 685.62 977.009 684.518 982.066 677.259 c 0
 985.53 672.288 985.823 666.22 984.696 660.435 c 0
 982.908 651.044 977.858 642.174 968.113 639.54 c 0
 964.044 638.421 959.756 638.353 955.565 638.261 c 2
 941.652 637.984 l 2
 926.435 637.391 911.316 636.4 896.435 633.345 c 0
 887.388 631.488 876.234 629.354 869.913 621.955 c 0
 867.04 618.535 865.565 614.233 864.392 609.978 c 2
 861.163 597.391 l 1
 789.478 310.87 l 1
 773.554 246.957 l 2
 768.308 225.97 763.122 205.045 755.442 184.783 c 0
 735.13 131.277 701.503 82.7944 656.87 46.7535 c 0
 616 13.7848 566.728 -7.83476 515.13 -16.9695 c 0
 488.703 -21.6478 461.916 -22.9456 435.13 -21.6574 c 0
 414.23 -20.6517 393.378 -18.1182 372.956 -13.5052 c 0
 324.256 -2.50432 277.238 21.5022 247.739 63.0435 c 0
 242.071 71.1044 237.1 79.7126 232.956 88.6957 c 0
 217.29 122.936 213.501 161.56 217.863 198.696 c 0
 220.134 218.028 225.039 236.808 229.75 255.652 c 2
 245.946 320.435 l 1
 297.033 524.783 l 2
 306.301 561.858 316.117 598.846 324.696 636.087 c 1
EndSplineSet
Fore
216 170 m 0
 216 204 223 231 230 256 c 2
 325 636 l 1
 305 638 286 638 266 638 c 2
 249 638 l 2
 230 638 223 648 223 659 c 0
 223 669 229 686 252 686 c 0
 265 686 309 683 390 683 c 0
 477 683 529 686 553 686 c 0
 571 686 577 676 577 666 c 0
 577 653 571 638 546 638 c 2
 531 638 l 2
 454 638 463 636 456 609 c 2
 378 296 l 2
 364 243 344 174 344 129 c 0
 344 46 407 26 461 26 c 0
 505.509 26 661.224 36.2024 712 252 c 2
 806 628 l 1
 786 636 761 638 735 638 c 0
 715 638 706 646 706 658 c 0
 706 670 712 686 734 686 c 0
 746 686 782 683 853 683 c 0
 918 683 951 685 962 685 c 0
 973 685 985 682 985 666 c 0
 985 653 979 638 956 638 c 0
 860 638 868 620 861 597 c 2
 774 247 l 2
 768 226 763 205 755 185 c 0
 714 76 612 -22 453 -22 c 0
 326 -22 216 36 216 170 c 0
EndSplineSet
EndChar
StartChar: V
Encoding: 86 86 27
Width: 865
Flags: HMW
TeX: 0 0 0 0
HStem: -13 21<407 424 424 433> 638 48<222.953 303.25 460.134 537.697>
Back
303.957 636.087 m 5
 303.957 636.087 l 5
 287.75 637.391 271.526 638.173 255.261 638.248 c 4
 246.289 638.261 235.468 636.927 227.389 641.635 c 4
 225.955 642.47 224.63 643.478 223.465 644.674 c 4
 217.288 650.87 217.435 659.878 219.779 667.805 c 4
 221.11 672.346 223.242 676.74 226.735 680 c 4
 230.478 683.56 235.399 685.192 240.478 685.646 c 4
 249.088 686.416 257.952 685.484 266.565 685.181 c 4
 281.342 684.661 296.129 684.192 310.913 683.913 c 4
 359.014 683.193 407.16 683.043 455.261 684.006 c 4
 473.668 684.348 492.076 684.782 510.478 685.35 c 4
 519.297 685.612 529.993 687.222 537.84 682.174 c 4
 546.519 676.729 547.435 666.522 545.002 657.391 c 4
 543.087 650.577 539.421 644.148 532.857 640.95 c 4
 528.209 638.685 522.949 638.416 517.869 638.261 c 6
 501.348 638.108 l 6
 490.467 637.826 479.58 637.391 468.739 636.415 c 4
 460.882 635.652 453.076 634.556 445.261 633.478 c 5
 459.742 531.304 l 5
 493.389 291.739 l 5
 510.913 167.826 l 5
 697.177 458.696 l 5
 805.696 628.261 l 5
 793.068 632.685 780.335 635.652 767 636.956 c 4
 761.783 637.499 756.565 637.785 751.348 638.02 c 4
 747.157 638.208 742.891 638.256 738.739 639.103 c 4
 732.484 640.396 726.878 644.192 724.265 650.192 c 4
 722.318 654.665 722.459 659.645 723.399 664.343 c 4
 725.196 673.333 729.97 681.886 739.261 684.632 c 4
 746.681 686.826 755.038 685.733 762.652 685.432 c 6
 800.044 684.201 l 6
 840.58 683.043 881.25 682.871 921.783 684.204 c 6
 933.522 684.626 l 5
 941.348 684.96 l 6
 952.511 685.458 966.655 687.587 973.606 676.512 c 4
 974.55 675.008 975.261 673.365 975.696 671.651 c 4
 976.788 667.703 976.466 663.478 975.619 659.565 c 4
 973.779 650.977 969.13 642.844 960.388 639.91 c 4
 956.232 638.516 951.776 638.377 947.435 638.223 c 6
 933.087 637.62 l 6
 916.222 636.64 898.164 634.747 882.652 627.555 c 4
 868.482 620.974 859.416 607.961 851.18 595.214 c 6
 829.451 561.304 l 5
 539.035 107.826 l 5
 492.217 34.7826 l 5
 479.422 14.7826 l 6
 474.939 7.91567 470.223 1.0448 463.697 -4.06346 c 4
 459.526 -7.39128 454.748 -9.76172 449.607 -11.0678 c 4
 442.143 -12.9643 434.205 -12.6087 426.565 -12.6087 c 4
 420.23 -12.6087 413.522 -12.7456 407.521 -10.4443 c 4
 405.948 -9.84172 404.391 -9.13041 403.037 -8.13693 c 4
 394.757 -2.61215 392.809 6.88915 391.449 16.087 c 6
 389.481 30 l 5
 373.057 146.957 l 6
 358.102 254.348 342.978 361.739 327.813 469.13 c 6
 313.167 573.478 l 6
 310.253 594.34 307.87 615.389 303.957 636.087 c 5
EndSplineSet
Fore
218 658 m 0
 218 671 224 686 247 686 c 0
 261 686 275 683 388 683 c 0
 468 683 509 686 522 686 c 0
 540 686 546 676 546 665 c 0
 546 639 525 638 514 638 c 2
 508 638 l 2
 495 638 470 637 445 633 c 1
 511 168 l 1
 806 628 l 1
 758 645 723 629 723 659 c 0
 723 669 728 686 750 686 c 0
 761 686 795 683 863 683 c 0
 917 683 944 686 953 686 c 0
 965 686 976 681 976 666 c 0
 976 648 969 638 940 638 c 0
 885 638 867 621 851 595 c 2
 479 15 l 2
 464 -10 451 -13 433 -13 c 2
 424 -13 l 2
 390 -13 394 7 389 30 c 2
 313 573 l 2
 310 594 308 615 304 636 c 1
 288 637 272 638 255 638 c 2
 246 638 l 2
 232 638 218 641 218 658 c 0
EndSplineSet
EndChar
StartChar: W
Encoding: 87 87 28
Width: 1160
Flags: MW
TeX: 0 0 0 0
HStem: -13 21<371 397.5 749.5 774> 638 48<220.5 295.343 449.351 528.077 603.865 685.346 1161.5 1262.9>
Back
296.435 636.087 m 5
 296.435 636.087 l 5
 281.652 637.613 266.869 638.166 252.087 638.246 c 4
 243.569 638.261 233.55 637.191 225.947 641.739 c 4
 224.511 642.609 223.191 643.733 222.034 644.95 c 4
 216.186 651.104 216.264 659.668 218.439 667.377 c 4
 219.774 672.113 221.981 676.692 225.565 680.077 c 4
 229.46 683.626 234.36 685.218 239.478 685.653 c 4
 247.669 686.343 256 685.474 264.261 685.181 c 4
 278.604 684.668 292.953 684.181 307.304 683.913 c 4
 353.957 683.186 400.652 683.139 447.304 684.006 c 4
 465.565 684.346 483.826 684.783 502.087 685.338 c 4
 510.771 685.595 521.217 687.199 529.117 682.547 c 4
 530.429 681.74 531.645 680.826 532.728 679.748 c 4
 538.773 673.733 538.887 665.181 536.839 657.392 c 4
 535.045 650.596 531.414 644.195 524.881 640.991 c 4
 520.243 638.696 514.989 638.425 509.912 638.261 c 6
 492.956 638.109 l 6
 481.929 637.826 470.899 637.392 459.913 636.382 c 4
 451.914 635.646 443.964 634.512 436 633.479 c 5
 435.565 633.044 l 5
 442.81 554.348 l 5
 455.13 423.044 l 5
 469.043 275.218 l 5
 477.304 189.131 l 5
 477.739 189.131 l 5
 484.261 201.048 491.351 212.609 498.289 224.348 c 6
 529.291 276.522 l 5
 620.218 429.566 l 5
 661.547 499.131 l 5
 673.391 519.131 l 6
 676.434 524.339 679.786 529.69 681.113 535.652 c 4
 682.256 540.792 681.745 546.087 681.217 551.305 c 6
 679.478 570 l 6
 677.467 592.026 675.264 614.044 673.391 636.087 c 5
 658.608 637.596 643.826 638.166 629.043 638.246 c 4
 620.547 638.261 610.554 637.18 602.91 641.635 c 4
 601.476 642.471 600.151 643.479 598.986 644.674 c 4
 592.809 650.943 592.956 659.876 595.296 667.805 c 4
 596.625 672.347 598.752 676.742 602.247 680 c 4
 605.565 683.128 609.805 684.783 614.261 685.447 c 4
 622.935 686.642 632.084 685.506 640.782 685.188 c 4
 655.849 684.636 670.924 684.143 686 683.913 c 4
 735.115 683.163 784.261 683.044 833.391 684.223 c 6
 884.695 685.506 l 6
 893.169 685.742 902.664 686.326 909.283 680 c 4
 914.965 674.603 915.689 666.886 914.115 659.566 c 4
 912.406 651.632 908.41 643.913 900.619 640.565 c 4
 895.895 638.523 890.631 638.377 885.565 638.261 c 6
 868.608 638.074 l 6
 849.615 637.555 830.782 636.222 812.087 633.044 c 5
 820.992 539.131 l 5
 836.17 377.826 l 5
 847.705 255.218 l 5
 853.826 188.696 l 5
 854.26 188.696 l 5
 893.901 256.087 l 5
 964.417 374.783 l 5
 1061.81 538.696 l 5
 1114.7 627.392 l 5
 1106.63 629.71 1098.58 632.091 1090.35 633.743 c 4
 1079.6 635.9 1068.61 636.957 1057.74 637.618 c 6
 1043.83 638.228 l 6
 1037.3 638.516 1030.69 639.131 1025.51 643.435 c 4
 1018.9 648.915 1018.03 657.298 1019.83 665.211 c 4
 1021.65 673.437 1026 681.244 1034.38 684.237 c 4
 1041.44 686.772 1049.48 685.827 1056.87 685.55 c 6
 1092.96 684.348 l 6
 1134.08 683.349 1175.31 682.741 1216.43 684.052 c 6
 1228.61 684.503 l 5
 1236.87 684.874 l 6
 1247.42 685.378 1260.63 687.53 1267.98 677.969 c 4
 1269.04 676.522 1269.91 674.981 1270.56 673.31 c 4
 1272.09 669.13 1271.94 664.701 1271.12 660.435 c 4
 1269.48 652.079 1265.42 643.817 1257.14 640.422 c 4
 1253.07 638.696 1248.61 638.455 1244.26 638.261 c 6
 1230.78 637.654 l 6
 1216.31 636.782 1201.22 634.981 1187.74 629.307 c 4
 1171.83 622.604 1162.69 608.169 1154.19 593.913 c 6
 1133.78 559.565 l 6
 1044.26 408.787 954.77 258.059 865.13 107.391 c 6
 822.956 36.5218 l 5
 810.864 16.087 l 6
 807.028 9.71745 803.086 3.28702 797.65 -1.86776 c 4
 793.129 -6.15646 787.695 -9.42168 781.651 -11.023 c 4
 775.565 -12.6086 769.186 -12.6086 762.956 -12.6086 c 4
 757.033 -12.6086 750.782 -12.4682 745.313 -9.99994 c 4
 743.791 -9.25298 742.349 -8.37863 741.036 -7.39124 c 4
 732.512 -0.585588 732.176 10.8696 731.217 20.8696 c 6
 723.603 101.739 l 5
 702.162 329.565 l 5
 695.46 400.87 l 6
 693.966 416.656 692.296 432.44 691.217 448.261 c 5
 680.744 431.686 670.936 414.684 660.926 397.826 c 6
 615.206 320.87 l 5
 476.754 87.8262 l 5
 444.46 33.4783 l 5
 433.588 15.2175 l 6
 429.76 8.89007 425.767 2.53311 420.255 -2.48863 c 4
 415.701 -6.63776 410.258 -9.71341 404.259 -11.1799 c 4
 398.872 -12.4973 393.256 -12.6086 387.739 -12.6086 c 4
 382.834 -12.6086 377.739 -12.6086 372.956 -11.426 c 4
 370.952 -10.9247 368.973 -10.1847 367.139 -9.15863 c 4
 354.489 -2.07993 355.081 14.3479 353.826 26.9566 c 6
 342.956 142.609 l 5
 312.069 471.304 l 5
 301.922 579.13 l 6
 300.124 598.117 298.516 617.129 296.435 636.087 c 5
EndSplineSet
Fore
217 658 m 0
 217 671 223 686 246 686 c 0
 259 686 273 683 380 683 c 0
 461 683 501 686 514 686 c 0
 532 686 538 676 538 665 c 0
 538 644 523 638 507 638 c 10
 499 638 l 18
 461 638 436 633 436 633 c 1
 477 188 l 1
 484 200 491 213 498 224 c 2
 683 536 l 1
 673 636 l 1
 659 638 644 638 629 638 c 2
 622 638 l 2
 607 638 594 641 594 659 c 0
 594 671 600 686 623 686 c 0
 636 686 663 683 756 683 c 0
 837 683 864 686 891 686 c 0
 908 686 915 676 915 665 c 0
 915 655 909 644 901 641 c 0
 891 637 857 641 812 633 c 1
 854 189 l 1
 1115 627 l 1
 1048 646 1019 628 1019 659 c 0
 1019 670 1024 686 1046 686 c 0
 1058 686 1095 683 1169 683 c 0
 1217 683 1241 686 1249 686 c 0
 1260 686 1272 681 1272 666 c 0
 1272 648 1259 638 1246 638 c 0
 1181 638 1172 621 1154 594 c 2
 811 16 l 2
 796 -10 785 -13 763 -13 c 0
 736 -13 733 -2 731 21 c 2
 695 401 l 2
 694 417 692 432 691 448 c 1
 434 15 l 2
 419 -9 408 -13 387 -13 c 0
 355 -13 356 5 354 27 c 2
 302 579 l 2
 300 598 299 617 296 636 c 1
 282 638 267 638 252 638 c 2
 246 638 l 2
 231 638 217 640 217 658 c 0
EndSplineSet
EndChar
StartChar: Y
Encoding: 89 89 29
Width: 865
Flags: HW
TeX: 0 0 0 0
HStem: 0 48<264.9 386 492.518 604> 638 48<214.819 323.1 464.045 548.1 868.8 972.118>
Back
509.261 50 m 5
 509.26 50 l 5
 528.633 48.4661 548.09 47.8261 567.521 47.8261 c 6
 584.913 47.7874 l 6
 589.973 47.7126 595.24 47.5678 599.955 45.5222 c 4
 601.621 44.7826 603.174 43.8548 604.591 42.7004 c 4
 611.65 36.8887 612.25 27.8261 610.099 19.5652 c 4
 608.036 11.6148 603.389 4.34349 595.259 1.64741 c 4
 590.963 0.223058 586.349 0.166971 581.869 0.224797 c 6
 567.087 0.653493 l 5
 516.217 1.95001 l 6
 462.63 3.31828 408.941 2.83784 355.347 2.12262 c 4
 335.491 1.85741 315.631 1.25175 295.782 0.657841 c 4
 286.548 0.381754 275.771 -0.777377 268.619 6.33915 c 4
 263.171 11.7391 262.493 19.327 264.007 26.5161 c 4
 265.699 34.5522 269.695 42.3626 277.696 45.647 c 4
 281.762 47.3265 286.217 47.6309 290.565 47.7487 c 6
 304.043 47.8261 l 6
 319.111 47.8261 334.206 48.0661 349.261 48.6957 c 4
 354.181 48.9622 359.124 49.1305 364.015 49.7705 c 4
 367.521 50.2039 371.285 50.8496 374.37 52.7731 c 4
 378.116 55.1083 379.99 59.0978 381.302 63.1578 c 4
 382.718 67.54 383.74 72.057 384.858 76.5218 c 6
 400.293 138.261 l 5
 422.902 228.696 l 5
 429.529 255.217 l 6
 431.073 261.435 433.004 267.826 432.654 274.348 c 4
 432.304 279.565 430.551 284.644 428.808 289.565 c 6
 422.378 307.391 l 5
 400.327 368.261 l 5
 328.194 567.391 l 5
 311.665 613.043 l 6
 310.257 616.922 308.904 620.841 307.249 624.624 c 4
 305.856 627.81 304.147 631.007 301.327 633.156 c 4
 298.582 635.217 295.152 636.061 291.797 636.522 c 4
 287.508 637.152 283.15 637.34 278.826 637.531 c 4
 268.391 637.994 257.956 638.231 247.521 638.256 c 4
 240.551 638.261 233.067 637.673 226.217 639.527 c 4
 224.257 640.078 222.304 640.87 220.547 642.023 c 4
 208.716 649.565 210.403 667.129 217.908 677.238 c 4
 224.414 686.002 234.998 686.054 244.913 685.744 c 6
 302.304 684.041 l 6
 328.826 683.446 355.342 683.478 381.869 683.478 c 4
 408.537 683.478 435.209 683.459 461.869 684.136 c 6
 511 685.294 l 5
 524.912 685.634 l 6
 529.101 685.647 533.401 685.5 537.368 684.014 c 4
 539.044 683.386 540.565 682.533 542.068 681.463 c 4
 550.107 675.462 550.401 665.416 547.799 656.522 c 4
 546.028 650.435 542.739 644.783 537.177 641.604 c 4
 532.656 639.009 527.414 638.507 522.304 638.349 c 6
 508.391 638.174 l 6
 491.341 637.826 474.404 636.796 457.521 634.348 c 5
 479.074 575.217 l 5
 511.833 484.783 l 5
 541.758 402.174 l 5
 559.695 352.174 l 5
 607.905 407.826 l 5
 691.582 504.783 l 5
 759.125 583.043 l 5
 799.695 630.435 l 5
 788.544 633.866 777.427 636.332 765.782 637.311 c 6
 751.869 638.13 l 6
 747.68 638.261 743.391 638.475 739.349 639.702 c 4
 737.357 640.307 735.447 641.18 733.725 642.355 c 4
 725.136 648.216 724.582 658.626 727.262 667.805 c 4
 728.588 672.346 730.721 676.741 734.213 680 c 4
 737.421 683.021 741.435 684.728 745.782 685.385 c 4
 753.174 686.51 760.961 685.617 768.391 685.334 c 6
 803.608 684.201 l 6
 825.059 683.606 846.499 683.478 867.956 683.478 c 4
 882.887 683.478 897.812 683.42 912.739 683.81 c 6
 941.435 684.742 l 6
 947.655 684.997 953.9 685.458 960.128 685.401 c 4
 968.266 685.326 976.312 682.734 980.13 674.931 c 4
 982.304 670.403 982.303 665.217 981.359 660.435 c 4
 979.695 651.914 975.48 643.478 966.95 640.258 c 4
 962.304 638.467 957.216 638.364 952.304 638.198 c 6
 935.782 637.487 l 6
 918.37 636.419 900.466 634.148 884.043 627.99 c 4
 865.578 621.065 852.003 606.3 839.392 591.736 c 6
 808.995 556.522 l 5
 644.648 366.087 l 5
 593.609 306.957 l 5
 577.88 288.696 l 6
 573.699 283.787 569.388 278.81 566.42 273.043 c 4
 562.093 264.64 560.504 254.754 558.228 245.652 c 6
 546.652 199.565 l 6
 534.242 149.707 522.029 99.78 509.261 50 c 5
EndSplineSet
Fore
212 659 m 0
 212 669 216 686 240 686 c 0
 267 686 294 683 388 683 c 0
 439 683 524 686 526 686 c 0
 543 686 549 676 549 665 c 0
 549 655 545 638 522 638 c 2
 508 638 l 2
 491 638 474 637 458 634 c 1
 560 352 l 1
 800 630 l 1
 757 644 726 630 726 659 c 0
 726 669 731 686 754 686 c 0
 776 686 780 683 866 683 c 0
 915 683 944 686 960 686 c 0
 978 686 982 674 982 666 c 0
 982 644 967 638 952 638 c 0
 888 638 868 625 839 592 c 2
 565 273 l 1
 509 50 l 1
 529 48 548 48 568 48 c 2
 587 48 l 2
 604 48 611 38 611 27 c 0
 611 17 606 0 583 0 c 0
 569 0 527 3 442 3 c 0
 349 3 303 0 287 0 c 0
 270 0 263 10 263 21 c 0
 263 30 268 48 291 48 c 1
 304 48 l 2
 386 48 377 50 385 77 c 2
 434 273 l 1
 312 613 l 2
 302 638 306 638 249 638 c 0
 225 638 212 640 212 659 c 0
EndSplineSet
EndChar
StartChar: b
Encoding: 98 98 30
Width: 532
Flags: MWO
TeX: 0 0 0 0
HStem: -11 37<236.8 320> 419 37<326 402.9> 636 58<224 316>
VStem: 111 96<22.4 153.385> 430 108<288.2 422.1>
Back
223.609 636.087 m 1
 223.609 636.087 l 1
 212.9 637.165 202.197 637.901 191.435 638.146 c 0
 184.187 638.261 176.369 637.597 169.34 639.689 c 0
 162.739 641.643 157.516 646.767 156.043 653.478 c 0
 155.301 656.956 155.547 660.435 156.201 663.91 c 0
 156.88 667.391 157.957 670.965 159.677 674.144 c 0
 160.565 675.922 161.787 677.591 163.167 679.066 c 0
 168.766 685.05 176.652 686.076 184.478 686.623 c 2
 197.522 687.391 l 1
 299.696 693.143 l 1
 307.522 693.579 l 2
 317.7 694.12 329.603 695.001 336.197 685.523 c 0
 337.214 684.061 337.957 682.447 338.551 680.75 c 0
 341.132 672.609 337.905 663.478 335.944 655.652 c 2
 324.044 608.261 l 2
 309.025 547.969 294.267 487.589 278.826 427.391 c 1
 286.808 431.739 294.828 436.051 303.174 439.691 c 0
 317.49 445.935 332.552 450.559 347.957 453.172 c 0
 363.904 455.877 380.13 456.186 396.217 454.643 c 0
 434.272 450.991 471.87 436.522 498.341 408.151 c 0
 503.92 402.167 508.826 395.627 513.174 388.696 c 0
 521.95 374.783 528.068 359.394 531.944 343.478 c 0
 539.871 310.87 538.599 276.699 532.739 243.913 c 0
 523.712 192.897 504.38 143.233 474.349 100.87 c 0
 459.031 79.2617 440.882 59.7856 420.13 43.3021 c 0
 407.027 32.8939 392.85 23.8069 377.957 16.1787 c 0
 367.297 10.7182 356.217 6.03257 344.913 2.14388 c 0
 336.079 -0.888731 327.074 -3.4783 317.957 -5.43308 c 0
 268.38 -16.4492 212.284 -13.2848 169.696 16.8674 c 0
 163.468 21.2774 157.595 26.2134 152.215 31.6282 c 0
 144.703 39.1304 138.239 47.7478 132.884 56.9565 c 0
 123.455 73.1726 117.408 91.143 114.043 109.565 c 0
 109.021 137.743 110.34 167.081 115.009 195.217 c 0
 117.88 212.517 122.131 229.521 126.38 246.522 c 2
 141.435 306.956 l 1
 194.859 520.435 l 2
 204.478 558.96 214.666 597.391 223.609 636.087 c 1
368.391 418.696 m 1
 368.391 418.696 l 1
 335.348 416.945 304.875 398.261 281.974 375.525 c 0
 273.891 367.492 265.151 358.639 260.131 348.261 c 0
 257.632 343.033 256.217 337.338 254.864 331.739 c 2
 249.859 311.739 l 1
 233.446 246.087 l 2
 224.842 211.672 215.133 177.315 209.907 142.174 c 0
 209.091 136.685 208.391 131.176 207.873 125.652 c 0
 205.178 97.6951 205.487 65.076 225.972 43.346 c 0
 228.819 40.326 231.967 37.5821 235.348 35.2173 c 0
 239.777 32.1738 244.613 29.8838 249.696 28.2607 c 0
 256.217 26.236 263.174 25.3834 270.13 25.5694 c 0
 301.435 26.4168 329.518 47.3768 348.533 70.8694 c 0
 352.451 75.652 356.052 80.8029 359.349 86.0868 c 0
 368.391 100.679 375.348 116.522 381.405 132.609 c 0
 390.033 155.744 396.565 179.565 402.734 203.478 c 0
 407.325 221.259 411.786 239.082 416 256.956 c 0
 420.372 275.502 424.462 294.159 427.081 313.043 c 0
 427.743 317.813 428.314 322.597 428.771 327.391 c 0
 431.207 352.976 431 381.857 412.517 401.911 c 0
 409.696 404.958 406.563 407.722 403.135 410 c 0
 398.765 413.043 393.923 415.302 388.826 416.732 c 0
 382.195 418.592 375.249 419.08 368.391 418.696 c 1
EndSplineSet
Fore
111 147 m 0
 111 184 119 216 126 247 c 2
 195 520 l 2
 204 559 215 597 224 636 c 1
 185 640 155 632 155 659 c 0
 155 689 184 686 198 687 c 2
 297 693 l 2
 309 694 313 694 316 694 c 0
 335 694 339 683 339 676 c 0
 339 666 331 634 279 427 c 1
 305 443 338 456 378 456 c 0
 441 456 538 423 538 295 c 0
 538 162 440 -11 266 -11 c 0
 176 -11 111 43 111 147 c 0
207 103 m 0
 207 41 244 26 268 26 c 0
 308 26 343 60 359 86 c 0
 395 144 430 302 430 348 c 0
 430 405 396 419 373 419 c 0
 316 419 268 365 260 348 c 0
 259 346 254 330 247 302 c 2
 220 191 l 2
 214 168 207 135 207 103 c 0
EndSplineSet
EndChar
